<svg height="44.447" viewBox="0 0 44.448 44.447" width="44.448" xmlns="http://www.w3.org/2000/svg"><g fill="#14143c"><path d="m1158.8 3425.642c5.934 0 6.635.021 8.979.129a12.277 12.277 0 0 1 4.126.765 7.371 7.371 0 0 1 4.219 4.218 12.335 12.335 0 0 1 .765 4.126c.106 2.344.129 3.046.129 8.979s-.023 6.637-.129 8.981a12.331 12.331 0 0 1 -.765 4.126 7.366 7.366 0 0 1 -4.219 4.219 12.3 12.3 0 0 1 -4.126.763c-2.344.108-3.046.131-8.979.131s-6.637-.023-8.981-.131a12.3 12.3 0 0 1 -4.126-.763 7.366 7.366 0 0 1 -4.219-4.219 12.329 12.329 0 0 1 -.765-4.126c-.106-2.344-.129-3.048-.129-8.981s.023-6.636.129-8.979a12.333 12.333 0 0 1 .765-4.126 7.371 7.371 0 0 1 4.219-4.218 12.274 12.274 0 0 1 4.126-.765c2.344-.108 3.046-.129 8.981-.129m0-4.005c-6.036 0-6.793.025-9.164.135a16.309 16.309 0 0 0 -5.394 1.032 11.36 11.36 0 0 0 -6.5 6.5 16.3 16.3 0 0 0 -1.033 5.4c-.108 2.371-.134 3.126-.134 9.162s.027 6.793.134 9.164a16.292 16.292 0 0 0 1.033 5.394 11.369 11.369 0 0 0 6.5 6.5 16.346 16.346 0 0 0 5.394 1.033c2.371.107 3.128.132 9.164.132s6.791-.025 9.162-.132a16.368 16.368 0 0 0 5.4-1.033 11.373 11.373 0 0 0 6.5-6.5 16.293 16.293 0 0 0 1.032-5.394c.107-2.371.135-3.128.135-9.164s-.027-6.791-.135-9.162a16.3 16.3 0 0 0 -1.032-5.4 11.364 11.364 0 0 0 -6.5-6.5 16.331 16.331 0 0 0 -5.4-1.032c-2.371-.11-3.126-.135-9.162-.135z" transform="translate(-1136.571 -3421.637)"/><path d="m1153.608 3427.26a11.413 11.413 0 1 0 11.412 11.412 11.413 11.413 0 0 0 -11.412-11.412zm0 18.82a7.407 7.407 0 1 1 7.407-7.409 7.408 7.408 0 0 1 -7.407 7.409z" transform="translate(-1131.382 -3416.448)"/><circle cx="34.088" cy="10.361" r="2.667"/></g></svg>