<?xml version="1.0" encoding="utf-8"?>
<!-- Generator: Adobe Illustrator 24.1.2, SVG Export Plug-In . SVG Version: 6.00 Build 0)  -->
<svg version="1.1" id="Capa_1" xmlns="http://www.w3.org/2000/svg" xmlns:xlink="http://www.w3.org/1999/xlink" x="0px" y="0px"
	 viewBox="0 0 288 128" style="enable-background:new 0 0 288 128;" xml:space="preserve">
<style type="text/css">
	.st0{fill:#14143C;}
	.st1{fill:url(#SVGID_1_);}
	.st2{fill:url(#SVGID_2_);}
</style>
<g>
	<g>
		<g>
			<g>
				<g>
					<g>
						<g>
							<path class="st0" d="M120.46,118.21h2.27c2.04,0,3.18,1.02,3.18,3.15c0,2.21-0.97,3.46-3.18,3.46h-2.27V118.21z
								 M121.34,124.08h1.46c0.6,0,2.22-0.17,2.22-2.6c0-1.57-0.58-2.53-2.2-2.53h-1.48V124.08z"/>
							<path class="st0" d="M130.22,118.21h0.88v6.61h-0.88V118.21z"/>
							<path class="st0" d="M139.55,120.14c-0.1-0.94-0.73-1.35-1.64-1.35c-0.74,0-1.48,0.27-1.48,1.13c0,0.81,1.06,0.94,2.12,1.18
								c1.06,0.24,2.11,0.61,2.11,1.91c0,1.41-1.38,1.97-2.58,1.97c-1.48,0-2.73-0.72-2.73-2.33h0.83c0,1.11,0.93,1.59,1.93,1.59
								c0.8,0,1.68-0.25,1.68-1.2c0-0.91-1.06-1.06-2.11-1.3s-2.12-0.54-2.12-1.75c0-1.34,1.19-1.94,2.4-1.94
								c1.35,0,2.38,0.64,2.44,2.09H139.55z"/>
							<path class="st0" d="M146.32,118.95h-2.2v-0.74h5.29v0.74h-2.2v5.87h-0.88V118.95z"/>
							<path class="st0" d="M153.34,118.21h0.88v6.61h-0.88V118.21z"/>
							<path class="st0" d="M158.82,118.21h0.94l3.48,5.36h0.02v-5.36h0.83v6.61h-0.96l-3.45-5.31h-0.02v5.31h-0.83V118.21z"/>
							<path class="st0" d="M173.34,120.2c-0.19-0.94-0.94-1.41-1.85-1.41c-1.57,0-2.24,1.3-2.24,2.68c0,1.51,0.67,2.77,2.25,2.77
								c1.16,0,1.82-0.81,1.91-1.91h0.88c-0.17,1.65-1.19,2.65-2.86,2.65c-2.06,0-3.06-1.52-3.06-3.44c0-1.92,1.09-3.48,3.13-3.48
								c1.38,0,2.52,0.74,2.72,2.15H173.34z"/>
							<path class="st0" d="M178.54,118.21h0.88v6.61h-0.88V118.21z"/>
							<path class="st0" d="M186.86,118.05c2.1,0,3.17,1.67,3.17,3.46c0,1.8-1.06,3.46-3.17,3.46s-3.17-1.67-3.17-3.46
								C183.69,119.72,184.76,118.05,186.86,118.05z M186.86,124.23c1.61,0,2.29-1.39,2.29-2.72c0-1.33-0.68-2.72-2.29-2.72
								s-2.29,1.39-2.29,2.72C184.57,122.85,185.25,124.23,186.86,124.23z M187.09,116.41h1.01l-1.21,1.32h-0.59L187.09,116.41z"/>
							<path class="st0" d="M194.28,118.21h0.94l3.48,5.36h0.02v-5.36h0.83v6.61h-0.96l-3.45-5.31h-0.02v5.31h-0.83V118.21z"/>
							<path class="st0" d="M210.02,118.21h4.56v0.74h-3.68v2.1h3.44v0.74h-3.44v2.29h3.71v0.74h-4.59V118.21z"/>
							<path class="st0" d="M218.76,118.21h0.93l3.48,5.36h0.02v-5.36h0.83v6.61h-0.96l-3.45-5.31h-0.02v5.31h-0.83V118.21z"/>
							<path class="st0" d="M237.3,118.05c2.1,0,3.17,1.67,3.17,3.46c0,1.8-1.06,3.46-3.17,3.46s-3.17-1.67-3.17-3.46
								C234.13,119.72,235.2,118.05,237.3,118.05z M237.3,124.23c1.61,0,2.29-1.39,2.29-2.72c0-1.33-0.68-2.72-2.29-2.72
								c-1.61,0-2.29,1.39-2.29,2.72C235.01,122.85,235.69,124.23,237.3,124.23z M237.53,116.41h1.01l-1.21,1.32h-0.59
								L237.53,116.41z"/>
							<path class="st0" d="M244.72,118.21h2.9c1.31,0,2.03,0.73,2.03,1.95c0,1.22-0.71,1.96-2.03,1.95h-2.02v2.7h-0.88V118.21z
								 M245.6,121.37h1.72c0.99,0.01,1.44-0.43,1.44-1.21c0-0.79-0.45-1.21-1.44-1.21h-1.72V121.37z"/>
							<path class="st0" d="M255.47,118.95h-2.2v-0.74h5.29v0.74h-2.2v5.87h-0.88V118.95z"/>
							<path class="st0" d="M262.48,118.21h0.88v6.61h-0.88V118.21z"/>
							<path class="st0" d="M272.64,120.2c-0.19-0.94-0.94-1.41-1.85-1.41c-1.57,0-2.24,1.3-2.24,2.68c0,1.51,0.67,2.77,2.25,2.77
								c1.16,0,1.82-0.81,1.91-1.91h0.88c-0.17,1.65-1.19,2.65-2.86,2.65c-2.06,0-3.06-1.52-3.06-3.44c0-1.92,1.09-3.48,3.13-3.48
								c1.38,0,2.52,0.74,2.72,2.15H272.64z"/>
							<path class="st0" d="M279.49,118.21h0.97l2.58,6.61h-0.97l-0.72-1.99h-2.8l-0.74,1.99h-0.91L279.49,118.21z M278.83,122.09
								h2.24l-1.1-3.08h-0.02L278.83,122.09z"/>
						</g>
					</g>
				</g>
			</g>
		</g>
		<g>
			<g>
				<path class="st0" d="M26.97,55.24c-0.89,0.77-1.57,1.69-2.03,2.76c-0.46,1.06-0.7,2.08-0.7,3.05c0,0.81,0.12,1.61,0.35,2.38
					c0.23,0.77,0.54,1.39,0.93,1.86c2.51-1.55,5.2-2.82,8.07-3.83c2.86-1.01,5.8-1.51,8.82-1.51c0.7,0,1.42,0.06,2.18,0.17
					c0.75,0.12,1.44,0.32,2.06,0.61c0.62,0.29,1.13,0.71,1.54,1.25c0.41,0.54,0.61,1.22,0.61,2.03c0,1.28-0.37,2.35-1.1,3.22
					c-0.73,0.87-1.68,1.58-2.84,2.12c-1.16,0.54-2.46,0.93-3.89,1.16c-1.43,0.23-2.84,0.35-4.24,0.35c-1.78,0-3.64-0.26-5.57-0.78
					c-1.94-0.52-3.64-1.52-5.11-2.99c-1.12,0.77-2.27,1.81-3.45,3.1c-1.18,1.3-2.26,2.7-3.25,4.21c-0.99,1.51-1.8,3.06-2.44,4.64
					c-0.64,1.59-0.96,3.06-0.96,4.41c0,0.81,0.07,1.58,0.2,2.29c0.14,0.72,0.39,1.33,0.75,1.86c0.37,0.52,0.86,0.94,1.48,1.25
					c0.62,0.31,1.39,0.46,2.32,0.46c1.08,0,2.19-0.21,3.31-0.64c1.12-0.43,2.17-0.94,3.13-1.54c0.97-0.6,1.8-1.21,2.49-1.83
					c0.7-0.62,1.12-1.12,1.28-1.51c0.39-0.81,0.74-1.57,1.07-2.26c0.33-0.7,0.71-1.31,1.13-1.83c0.43-0.52,0.94-0.94,1.54-1.25
					c0.6-0.31,1.34-0.46,2.23-0.46c0.23,0,0.46,0.06,0.67,0.17c0.21,0.12,0.32,0.35,0.32,0.7c0,0.43-0.39,1.08-1.16,1.97
					c-0.77,0.89-1.57,1.86-2.38,2.9c-1.2,2.13-2.56,4.29-4.09,6.5c-1.53,2.21-3.24,4.19-5.14,5.95c-1.9,1.76-4,3.2-6.32,4.32
					c-2.32,1.12-4.85,1.68-7.6,1.68c-1.32,0-2.54-0.18-3.68-0.55c-1.14-0.37-2.14-0.89-2.99-1.57c-0.85-0.68-1.52-1.49-2-2.44
					c-0.48-0.95-0.73-1.98-0.73-3.1c0-1,0.24-1.9,0.73-2.67C3,91.08,3.78,90.7,4.86,90.7c0.54,0,1.02,0.2,1.42,0.61
					c0.41,0.41,0.61,0.88,0.61,1.42c0,0.62-0.18,1.12-0.55,1.51c-0.37,0.39-0.86,0.56-1.48,0.52c-0.12,0-0.28-0.01-0.49-0.03
					c-0.21-0.02-0.38-0.07-0.49-0.14c-0.08,0.27-0.12,0.52-0.12,0.75c0,0.19,0,0.39,0,0.58c0,0.85,0.21,1.62,0.64,2.32
					c0.43,0.7,0.99,1.29,1.68,1.77c0.7,0.48,1.5,0.85,2.41,1.1c0.91,0.25,1.87,0.38,2.87,0.38c2.09,0,4.01-0.5,5.77-1.51
					c1.76-1,3.37-2.26,4.85-3.77c1.47-1.51,2.81-3.14,4.03-4.9c1.22-1.76,2.31-3.39,3.28-4.9c-0.05-0.05-0.07-0.07-0.12-0.12
					c-1.35,1.12-2.88,2.06-4.58,2.81c-1.7,0.75-3.48,1.13-5.34,1.13c-2.17,0-3.88-0.64-5.14-1.92c-1.26-1.28-1.89-3-1.89-5.16
					c0-1.7,0.42-3.4,1.25-5.11c0.83-1.7,1.88-3.32,3.13-4.84c1.26-1.53,2.64-2.94,4.15-4.24c1.51-1.3,2.92-2.37,4.24-3.22
					c-0.97-1.39-1.45-2.92-1.45-4.58c0-1.28,0.3-2.46,0.9-3.54c0.6-1.08,1.32-1.99,2.18-2.73C26.76,55.04,26.83,55.1,26.97,55.24z
					 M46.47,63.48c0-0.7-0.16-1.23-0.49-1.6c-0.33-0.37-0.75-0.65-1.28-0.84c-0.52-0.19-1.07-0.31-1.65-0.35
					c-0.58-0.04-1.14-0.06-1.68-0.06c-1.28,0-2.58,0.17-3.92,0.52c-1.33,0.35-2.65,0.79-3.95,1.33c-1.3,0.54-2.54,1.17-3.74,1.89
					c-1.2,0.72-2.28,1.46-3.25,2.23c0.97,1.12,2.35,1.99,4.15,2.61c1.8,0.62,3.84,0.93,6.12,0.93c1.24,0,2.44-0.14,3.6-0.43
					c1.16-0.29,2.19-0.72,3.08-1.28c0.89-0.56,1.61-1.26,2.18-2.09C46.19,65.52,46.47,64.57,46.47,63.48z"/>
				<g>
					<path class="st0" d="M82.91,82.52c0.05-0.28,0.07-0.42,0.12-0.7c1,0,1.5,0,2.5,0c1.12-1.74,2.27-3.5,3.45-5.28
						c1.18-1.78,2.47-3.45,3.89-5.02c1.41-1.57,2.98-2.96,4.7-4.18s3.65-2.1,5.77-2.64c0-0.05,0-0.07,0-0.12
						c-1.01,0-2.03-0.01-3.08-0.03c-1.04-0.02-2.18-0.05-3.39-0.09c-1.22-0.04-2.57-0.07-4.06-0.09c-1.49-0.02-3.18-0.03-5.08-0.03
						c-3.83,0-7.31,0.33-10.44,0.99c-3.13,0.66-5.81,1.59-8.04,2.79c-2.23,1.2-3.96,2.6-5.19,4.21c-1.24,1.61-1.89,3.38-1.97,5.31
						c-0.08,1.85,0.59,3.34,2,4.44c1.41,1.1,3.34,1.65,5.77,1.65c1.59,0,3.21-0.26,4.87-0.78c1.66-0.52,3.17-1.26,4.53-2.21
						c1.35-0.95,2.47-2.08,3.34-3.39c0.87-1.31,1.31-2.75,1.31-4.29c0-0.66-0.06-1.25-0.18-1.77c-0.12-0.52-0.23-0.99-0.35-1.42
						c0.23-0.05,0.35-0.07,0.58-0.12c0.43,1.08,0.64,2.21,0.64,3.37c0,1.39-0.41,2.77-1.22,4.12c-0.81,1.35-1.9,2.56-3.25,3.63
						c-1.35,1.06-2.93,1.93-4.73,2.58c-1.8,0.66-3.67,0.99-5.6,0.99c-2.59,0-4.64-0.58-6.15-1.74c-1.51-1.16-2.26-2.78-2.26-4.87
						c0-2.13,0.73-4.17,2.18-6.12c1.45-1.95,3.55-3.68,6.3-5.19c2.75-1.51,6.12-2.71,10.13-3.6c4-0.89,8.56-1.33,13.67-1.33
						c3.4,0,6.37,0.04,8.91,0.12c2.53,0.08,4.42,0.12,5.66,0.12c0.89,0,1.69-0.04,2.41-0.12c0.71-0.08,1.36-0.12,1.94-0.12
						c0.77,0,1.43,0.05,1.97,0.14c0.54,0.1,0.81,0.44,0.81,1.02c0,0.5-0.1,0.89-0.29,1.16c-0.19,0.27-0.67,0.46-1.42,0.58
						c-0.75,0.12-1.87,0.18-3.34,0.2c-1.47,0.02-3.93-0.33-5.98,0.03c-1.94,0.34-4.12,1.89-5.63,3.22
						c-1.51,1.33-2.81,2.79-3.92,4.35c-1.1,1.57-2.09,3.17-2.96,4.82c-0.87,1.64-1.83,3.18-2.87,4.61c0.46-0.08,1.05-0.14,1.77-0.17
						c0.72-0.04,1.42-0.1,2.12-0.17c0.7-0.08,1.33-0.17,1.92-0.29c0.58-0.12,0.95-0.29,1.1-0.52c0.35-0.46,0.76-0.93,1.25-1.39
						c0.48-0.46,1.13-0.7,1.94-0.7c0.5,0,0.99,0.08,1.45,0.23c-1.59,1.36-3.08,2.81-4.47,4.38c-1.39,1.57-2.65,3.24-3.77,5.02
						c-0.14-0.07-0.21-0.1-0.35-0.17c0.39-1.08,0.85-2.12,1.39-3.1c0.54-0.99,1.08-1.98,1.62-2.99c-0.5,0.08-1.05,0.14-1.65,0.2
						c-0.6,0.06-1.19,0.12-1.77,0.17c-0.58,0.06-1.12,0.11-1.62,0.14c-0.5,0.04-0.91,0.08-1.22,0.12c-1.39,2.32-2.89,4.62-4.5,6.91
						c-1.61,2.28-3.39,4.34-5.37,6.18c-1.97,1.84-4.18,3.33-6.62,4.47c-2.44,1.14-5.18,1.71-8.24,1.71c-1.04,0-2.16-0.14-3.34-0.41
						c-1.18-0.27-2.27-0.7-3.28-1.28c-1.01-0.58-1.84-1.31-2.5-2.21c-0.66-0.89-0.99-1.95-0.99-3.19c0-0.77,0.22-1.49,0.67-2.15
						c0.44-0.66,1.09-0.99,1.94-0.99c0.62,0,1.09,0.19,1.42,0.58c0.33,0.39,0.49,0.87,0.49,1.45c0,0.54-0.14,1.02-0.41,1.42
						c-0.27,0.41-0.68,0.61-1.22,0.61c-0.23,0-0.43-0.02-0.58-0.06c0,0.12,0.05,0.47,0.14,1.07c0.1,0.6,0.4,1.23,0.9,1.89
						c0.5,0.66,1.31,1.25,2.41,1.77c1.1,0.52,2.64,0.78,4.61,0.78c2.51,0,4.82-0.63,6.91-1.89c2.09-1.26,3.98-2.81,5.69-4.67
						c1.7-1.86,3.24-3.87,4.61-6.03c1.37-2.17,2.62-4.14,3.74-5.92C84.26,82.52,83.81,82.52,82.91,82.52z"/>
				</g>
				<circle class="st0" cx="36.62" cy="99.35" r="1.95"/>
				<path class="st0" d="M117.84,81.3c1.51,0,2.26,0,3.77,0c-1.43,2.01-2.8,3.97-4.12,5.86c-1.32,1.9-2.49,3.65-3.51,5.25
					c-1.03,1.61-1.85,3.02-2.47,4.24c-0.62,1.22-0.93,2.18-0.93,2.87c0,1.01,0.52,1.51,1.57,1.51c0.81,0,1.85-0.4,3.1-1.19
					s2.62-1.89,4.09-3.28c1.47-1.39,2.98-3.02,4.53-4.87c1.55-1.86,3.02-3.83,4.41-5.92c0.14,0.05,0.21,0.07,0.35,0.12
					c-1.05,1.59-2.27,3.3-3.68,5.13c-1.41,1.84-2.89,3.55-4.44,5.14c-1.55,1.59-3.1,2.91-4.64,3.97c-1.55,1.06-3,1.6-4.35,1.6
					c-1.12,0-1.94-0.28-2.47-0.84c-0.52-0.56-0.78-1.23-0.78-2c0-0.54,0.09-1.07,0.26-1.6c0.17-0.52,0.36-1.05,0.55-1.6
					c-0.05-0.02-0.07-0.04-0.12-0.06c-0.5,0.54-1.13,1.17-1.89,1.89c-0.75,0.72-1.57,1.38-2.44,2c-0.87,0.62-1.77,1.14-2.7,1.57
					c-0.93,0.43-1.82,0.64-2.67,0.64c-1.43,0-2.44-0.44-3.02-1.33c-0.58-0.89-0.87-1.9-0.87-3.02c0-1.59,0.5-3.34,1.51-5.25
					c1.01-1.91,2.28-3.71,3.83-5.4c1.55-1.68,3.23-3.08,5.05-4.21c1.82-1.12,3.54-1.68,5.16-1.68c0.77,0,1.45,0.11,2.03,0.32
					c0.58,0.21,1.06,0.5,1.45,0.87s0.69,0.78,0.9,1.25c0.21,0.46,0.38,0.95,0.49,1.45c0.05,0,0.07,0,0.12,0
					C116.69,83.35,117.07,82.67,117.84,81.3z M98.86,97.54c0,0.89,0.18,1.58,0.55,2.06c0.37,0.48,0.88,0.73,1.54,0.73
					c0.66,0,1.43-0.24,2.32-0.73c0.89-0.48,1.82-1.13,2.78-1.94c0.97-0.81,1.92-1.75,2.87-2.81c0.95-1.06,1.79-2.2,2.52-3.39
					c0.73-1.2,1.33-2.42,1.8-3.66c0.46-1.24,0.7-2.42,0.7-3.54c0-0.89-0.25-1.57-0.75-2.03c-0.5-0.46-1.12-0.7-1.86-0.7
					c-1.16,0-2.46,0.5-3.89,1.51c-1.43,1.01-2.78,2.29-4.06,3.86c-1.28,1.57-2.35,3.3-3.22,5.19C99.3,93.99,98.86,95.8,98.86,97.54z
					"/>
				<path class="st0" d="M147.54,60.87c-3.44,5.22-6.44,9.74-8.99,13.55c-2.55,3.81-4.74,7.07-6.56,9.78
					c-1.82,2.71-3.31,4.94-4.47,6.7c-1.16,1.76-2.07,3.2-2.73,4.32c-0.66,1.12-1.11,2.01-1.36,2.67c-0.25,0.66-0.38,1.22-0.38,1.68
					c0,0.97,0.43,1.45,1.28,1.45c0.97,0,2.1-0.4,3.4-1.19c1.3-0.79,2.69-1.88,4.18-3.25c1.49-1.37,3.01-2.98,4.56-4.82
					c1.55-1.84,3.06-3.8,4.53-5.89c0.26,0.09,0.38,0.14,0.64,0.23c-1.39,1.97-2.86,3.88-4.41,5.72c-1.55,1.84-3.04,3.44-4.47,4.79
					c-1.89,1.78-3.53,3.08-4.9,3.89c-1.37,0.81-2.62,1.22-3.74,1.22c-1.2,0-2.06-0.27-2.58-0.81c-0.52-0.54-0.78-1.26-0.78-2.15
					c0-0.81,0.15-1.65,0.44-2.52c0.29-0.87,0.78-1.92,1.48-3.13c0.7-1.22,1.61-2.7,2.76-4.44c1.14-1.74,2.55-3.88,4.24-6.41
					c1.68-2.53,3.66-5.55,5.95-9.05c2.28-3.5,4.91-7.61,7.89-12.33C145.11,60.87,145.92,60.87,147.54,60.87z"/>
				<path class="st0" d="M160.43,86.69c-0.89,1.43-2.06,2.97-3.51,4.61c-1.45,1.64-3.03,3.19-4.73,4.61
					c-2.08,1.74-4.18,3.14-6.27,4.21c-2.09,1.06-4.14,1.6-6.15,1.6c-1.43,0-2.63-0.38-3.6-1.13s-1.45-1.87-1.45-3.34
					c0-1.86,0.53-3.75,1.6-5.69c1.06-1.93,2.4-3.7,4-5.31c1.61-1.61,3.37-2.91,5.28-3.92c1.91-1.01,3.72-1.51,5.43-1.51
					c1.12,0,2.1,0.2,2.93,0.61c0.83,0.41,1.25,1.11,1.25,2.12c0,0.46-0.13,0.85-0.38,1.16c-0.25,0.31-0.56,0.56-0.93,0.75
					c-0.37,0.19-0.77,0.34-1.22,0.44c-0.44,0.1-0.84,0.16-1.19,0.2c0.15-0.39,0.29-0.78,0.41-1.19c0.12-0.41,0.18-0.82,0.18-1.25
					c0-1.43-0.68-2.15-2.03-2.15c-1.01,0-2.2,0.49-3.57,1.48c-1.37,0.99-2.67,2.23-3.89,3.74c-1.22,1.51-2.25,3.17-3.1,4.99
					c-0.85,1.82-1.28,3.58-1.28,5.28c0,1.05,0.24,1.94,0.73,2.67c0.48,0.73,1.23,1.1,2.23,1.1c1.35,0,2.91-0.44,4.67-1.33
					c1.76-0.89,3.47-2,5.14-3.31c1.73-1.35,3.41-2.91,5.02-4.67c1.6-1.76,2.95-3.47,4.03-5.14
					C160.18,86.48,160.26,86.55,160.43,86.69z"/>
				<path class="st0" d="M186.36,86.58c-0.93,1.04-1.97,1.88-3.13,2.49c-1.16,0.62-2.3,0.93-3.42,0.93c-1.08,0-2.01-0.24-2.78-0.73
					c-0.77-0.48-1.37-1.05-1.8-1.71c-0.05,0-0.07,0-0.12,0c-0.39,1.47-1.1,3.04-2.15,4.7c-1.04,1.66-2.29,3.19-3.74,4.58
					c-1.45,1.39-3.05,2.55-4.79,3.48c-1.74,0.93-3.52,1.39-5.34,1.39c-1.66,0-2.92-0.48-3.77-1.45c-0.85-0.97-1.28-2.26-1.28-3.89
					c0-0.85,0.21-1.84,0.64-2.96c0.42-1.12,1.02-2.25,1.77-3.39c0.75-1.14,1.64-2.26,2.67-3.37c1.03-1.1,2.14-2.09,3.34-2.96
					c1.2-0.87,2.47-1.57,3.8-2.09c1.33-0.52,2.68-0.78,4.03-0.78c1.59,0,2.81,0.46,3.68,1.39c0.87,0.93,1.32,2.15,1.42,3.6
					c0.06,0.88,0.49,1.71,1.25,2.47c0.75,0.75,1.79,1.13,3.1,1.13c1.16,0,2.25-0.29,3.28-0.87c1.03-0.58,1.98-1.33,2.87-2.26
					C186.09,86.4,186.18,86.46,186.36,86.58z M157.18,97.78c0,1.01,0.19,1.8,0.58,2.38c0.39,0.58,0.97,0.87,1.74,0.87
					c1.04,0,2.08-0.28,3.1-0.84c1.02-0.56,2.01-1.3,2.96-2.21c0.95-0.91,1.83-1.94,2.64-3.1c0.81-1.16,1.52-2.36,2.12-3.6
					c0.6-1.24,1.07-2.45,1.42-3.63c0.35-1.18,0.52-2.25,0.52-3.22c0-0.81-0.2-1.5-0.61-2.06c-0.41-0.56-1.04-0.84-1.89-0.84
					c-0.81,0-1.68,0.26-2.61,0.78c-0.93,0.52-1.87,1.21-2.81,2.06c-0.95,0.85-1.85,1.84-2.7,2.96c-0.85,1.12-1.62,2.28-2.29,3.48
					c-0.68,1.2-1.21,2.4-1.6,3.6C157.37,95.61,157.18,96.73,157.18,97.78z"/>
				<path class="st0" d="M191.88,81.3c-3.06,4.25-4.6,6.37-7.66,10.62c0.05,0.05,0.07,0.07,0.12,0.12c0.81-0.97,1.76-2.1,2.84-3.39
					c1.08-1.3,2.24-2.53,3.48-3.68c1.24-1.16,2.52-2.14,3.86-2.93c1.33-0.79,2.66-1.19,3.97-1.19c1.16,0,2.06,0.32,2.7,0.96
					c0.64,0.64,0.96,1.46,0.96,2.47c0,0.62-0.22,1.36-0.67,2.21c-0.44,0.85-1,1.76-1.65,2.73c-0.66,0.97-1.37,1.95-2.15,2.96
					c-0.77,1.01-1.49,1.96-2.15,2.87c-0.66,0.91-1.21,1.74-1.65,2.5c-0.44,0.75-0.67,1.38-0.67,1.89c0,1.08,0.54,1.62,1.62,1.62
					c1.24,0,2.55-0.42,3.95-1.25c1.39-0.83,3.06-2.23,4.99-4.21c0.77-0.77,1.56-1.62,2.35-2.55c0.79-0.93,1.56-1.85,2.29-2.76
					c0.73-0.91,1.4-1.77,2-2.58c0.6-0.81,1.07-1.49,1.42-2.03c0.16,0.09,0.24,0.14,0.41,0.23c-0.77,1.16-1.77,2.54-2.99,4.15
					c-1.22,1.61-2.54,3.18-3.97,4.73c-0.85,0.93-1.72,1.82-2.61,2.67c-0.89,0.85-1.78,1.6-2.67,2.23c-0.89,0.64-1.77,1.14-2.64,1.51
					c-0.87,0.37-1.73,0.55-2.58,0.55c-1.12,0-2.05-0.31-2.79-0.93c-0.74-0.62-1.1-1.47-1.1-2.55c0-1.16,0.46-2.43,1.39-3.8
					c0.93-1.37,1.95-2.76,3.08-4.15c1.12-1.39,2.15-2.73,3.08-4c0.93-1.28,1.39-2.4,1.39-3.37c0-0.46-0.15-0.81-0.46-1.04
					s-0.72-0.35-1.22-0.35c-0.97,0-2.05,0.36-3.25,1.07c-1.2,0.72-2.43,1.66-3.68,2.84c-1.26,1.18-2.51,2.49-3.77,3.95
					c-1.26,1.45-2.43,2.9-3.51,4.35c-1.08,1.45-2.05,2.84-2.9,4.18c-0.85,1.33-1.49,2.45-1.91,3.34c-1.44,0-2.16,0-3.6,0
					c1.01-1.7,2.08-3.43,3.22-5.19c1.14-1.76,2.27-3.5,3.39-5.22c1.12-1.72,2.2-3.38,3.22-4.99c1.02-1.6,1.94-3.07,2.76-4.38
					C189.61,81.4,190.37,81.37,191.88,81.3z"/>
				<path class="st0" d="M227.33,81.3c1.51,0,2.26,0,3.77,0c-1.43,2.01-2.8,3.97-4.12,5.86c-1.32,1.9-2.49,3.65-3.51,5.25
					c-1.03,1.61-1.85,3.02-2.47,4.24c-0.62,1.22-0.93,2.18-0.93,2.87c0,1.01,0.52,1.51,1.57,1.51c0.81,0,1.85-0.4,3.1-1.19
					c1.26-0.79,2.62-1.89,4.09-3.28c1.47-1.39,2.98-3.02,4.53-4.87s3.02-3.83,4.41-5.92c0.14,0.05,0.21,0.07,0.35,0.12
					c-1.05,1.59-2.27,3.3-3.68,5.13c-1.41,1.84-2.89,3.55-4.44,5.14c-1.55,1.59-3.1,2.91-4.64,3.97c-1.55,1.06-3,1.6-4.35,1.6
					c-1.12,0-1.94-0.28-2.47-0.84c-0.52-0.56-0.78-1.23-0.78-2c0-0.54,0.09-1.07,0.26-1.6c0.17-0.52,0.36-1.05,0.55-1.6
					c-0.05-0.02-0.07-0.04-0.12-0.06c-0.5,0.54-1.13,1.17-1.89,1.89c-0.75,0.72-1.57,1.38-2.44,2c-0.87,0.62-1.77,1.14-2.7,1.57
					c-0.93,0.43-1.82,0.64-2.67,0.64c-1.43,0-2.44-0.44-3.02-1.33c-0.58-0.89-0.87-1.9-0.87-3.02c0-1.59,0.5-3.34,1.51-5.25
					c1.01-1.91,2.28-3.71,3.83-5.4c1.55-1.68,3.23-3.08,5.05-4.21c1.82-1.12,3.54-1.68,5.16-1.68c0.77,0,1.45,0.11,2.03,0.32
					c0.58,0.21,1.06,0.5,1.45,0.87c0.39,0.37,0.69,0.78,0.9,1.25c0.21,0.46,0.38,0.95,0.49,1.45c0.05,0,0.07,0,0.12,0
					C226.18,83.35,226.56,82.67,227.33,81.3z M208.35,97.54c0,0.89,0.18,1.58,0.55,2.06c0.37,0.48,0.88,0.73,1.54,0.73
					s1.43-0.24,2.32-0.73c0.89-0.48,1.82-1.13,2.78-1.94c0.97-0.81,1.92-1.75,2.87-2.81c0.95-1.06,1.79-2.2,2.52-3.39
					c0.73-1.2,1.33-2.42,1.8-3.66c0.46-1.24,0.7-2.42,0.7-3.54c0-0.89-0.25-1.57-0.75-2.03c-0.5-0.46-1.12-0.7-1.86-0.7
					c-1.16,0-2.46,0.5-3.89,1.51c-1.43,1.01-2.78,2.29-4.06,3.86c-1.28,1.57-2.35,3.3-3.22,5.19
					C208.79,93.99,208.35,95.8,208.35,97.54z"/>
				<path class="st0" d="M243.52,81.3c-2.95,4.29-4.42,6.44-7.37,10.73c0.05,0.05,0.07,0.07,0.12,0.12
					c0.54-0.66,1.23-1.42,2.06-2.29c0.83-0.87,1.74-1.76,2.73-2.67c0.99-0.91,2.02-1.81,3.1-2.7c1.08-0.89,2.15-1.68,3.19-2.38
					c0.19-0.39,0.41-0.7,0.64-0.93c0.23-0.23,0.7-0.35,1.39-0.35c0.42,0,0.8,0.01,1.13,0.03c0.33,0.02,0.67,0.05,1.02,0.09
					c-0.66,0.66-1.3,1.46-1.92,2.41s-0.93,1.98-0.93,3.1c0,0.89,0.22,1.59,0.67,2.09c0.44,0.5,0.99,0.75,1.65,0.75
					c0.58,0,1.15-0.12,1.71-0.35c0.56-0.23,1.09-0.52,1.6-0.87c0.5-0.35,0.99-0.72,1.45-1.1c0.46-0.39,0.87-0.73,1.22-1.05
					c0.14,0.09,0.21,0.14,0.35,0.23c-0.39,0.39-0.83,0.8-1.33,1.25c-0.5,0.44-1.04,0.86-1.62,1.25c-0.58,0.39-1.2,0.71-1.86,0.96
					c-0.66,0.25-1.33,0.38-2.03,0.38c-1.24,0-2.23-0.38-2.99-1.13c-0.75-0.75-1.13-1.81-1.13-3.16c0-0.93,0.21-1.76,0.64-2.5
					c-0.05-0.05-0.07-0.07-0.12-0.12c-1.59,1.08-3.33,2.5-5.22,4.27c-1.9,1.76-3.91,3.84-6.03,6.24c-0.77,0.85-1.58,1.97-2.41,3.37
					c-0.83,1.39-1.56,2.82-2.18,4.29c-1.51,0-2.26,0-3.77,0c2.09-3.33,4.18-6.63,6.27-9.92c2.09-3.29,4.24-6.63,6.44-10.04
					C241.39,81.3,242.1,81.3,243.52,81.3z"/>
				<path class="st0" d="M282.97,86.58c-0.93,1.04-1.97,1.88-3.13,2.49c-1.16,0.62-2.3,0.93-3.42,0.93c-1.08,0-2.01-0.24-2.78-0.73
					c-0.77-0.48-1.37-1.05-1.8-1.71c-0.05,0-0.07,0-0.12,0c-0.39,1.47-1.1,3.04-2.15,4.7c-1.04,1.66-2.29,3.19-3.74,4.58
					c-1.45,1.39-3.05,2.55-4.79,3.48s-3.52,1.39-5.34,1.39c-1.66,0-2.92-0.48-3.77-1.45c-0.85-0.97-1.28-2.26-1.28-3.89
					c0-0.85,0.21-1.84,0.64-2.96c0.42-1.12,1.02-2.25,1.77-3.39c0.75-1.14,1.64-2.26,2.67-3.37c1.03-1.1,2.14-2.09,3.34-2.96
					c1.2-0.87,2.47-1.57,3.8-2.09c1.33-0.52,2.68-0.78,4.03-0.78c1.59,0,2.81,0.46,3.68,1.39c0.87,0.93,1.32,2.15,1.42,3.6
					c0.06,0.88,0.49,1.71,1.25,2.47c0.75,0.75,1.79,1.13,3.1,1.13c1.16,0,2.25-0.29,3.28-0.87c1.03-0.58,1.98-1.33,2.87-2.26
					C282.69,86.4,282.79,86.46,282.97,86.58z M253.79,97.78c0,1.01,0.19,1.8,0.58,2.38c0.39,0.58,0.97,0.87,1.74,0.87
					c1.04,0,2.08-0.28,3.1-0.84c1.02-0.56,2.01-1.3,2.96-2.21c0.95-0.91,1.83-1.94,2.64-3.1c0.81-1.16,1.52-2.36,2.12-3.6
					c0.6-1.24,1.07-2.45,1.42-3.63c0.35-1.18,0.52-2.25,0.52-3.22c0-0.81-0.2-1.5-0.61-2.06c-0.41-0.56-1.04-0.84-1.89-0.84
					c-0.81,0-1.68,0.26-2.61,0.78c-0.93,0.52-1.87,1.21-2.81,2.06c-0.95,0.85-1.85,1.84-2.7,2.96c-0.85,1.12-1.62,2.28-2.29,3.48
					c-0.68,1.2-1.21,2.4-1.6,3.6C253.98,95.61,253.79,96.73,253.79,97.78z"/>
			</g>
		</g>
	</g>
	<g>
		<g>
			
				<radialGradient id="SVGID_1_" cx="120.8888" cy="35.0961" r="25.9227" gradientTransform="matrix(0.9908 0 0 0.9908 24.2202 -2.3552)" gradientUnits="userSpaceOnUse">
				<stop  offset="0.2987" style="stop-color:#14143C"/>
				<stop  offset="0.3868" style="stop-color:#18183F"/>
				<stop  offset="0.4782" style="stop-color:#25254A"/>
				<stop  offset="0.571" style="stop-color:#39395B"/>
				<stop  offset="0.6649" style="stop-color:#565673"/>
				<stop  offset="0.7597" style="stop-color:#7C7C92"/>
				<stop  offset="0.8551" style="stop-color:#AAAAB8"/>
				<stop  offset="0.9493" style="stop-color:#DFDFE5"/>
				<stop  offset="1" style="stop-color:#FFFFFF"/>
			</radialGradient>
			<path class="st1" d="M144,44.29c-12.35,0-24.09-6.9-33.06-19.43l-1.27-1.77l3.54-2.54l1.27,1.77
				c8.13,11.35,18.62,17.61,29.52,17.61c10.9,0,21.39-6.25,29.52-17.61l1.27-1.77l3.54,2.54l-1.27,1.77
				C168.09,37.39,156.35,44.29,144,44.29z"/>
		</g>
		<g>
			<g>
				<linearGradient id="SVGID_2_" gradientUnits="userSpaceOnUse" x1="143.9997" y1="34.3105" x2="143.9997" y2="4.1741">
					<stop  offset="0.15" style="stop-color:#14143C"/>
					<stop  offset="0.2202" style="stop-color:#363658"/>
					<stop  offset="0.3794" style="stop-color:#7C7C93"/>
					<stop  offset="0.5227" style="stop-color:#B5B5C1"/>
					<stop  offset="0.645" style="stop-color:#DDDDE3"/>
					<stop  offset="0.7414" style="stop-color:#F6F6F7"/>
					<stop  offset="0.8" style="stop-color:#FFFFFF"/>
				</linearGradient>
				<path class="st2" d="M144,34.31c-8.31,0-15.07-6.76-15.07-15.07c0-8.31,6.76-15.07,15.07-15.07s15.07,6.76,15.07,15.07
					C159.07,27.55,152.31,34.31,144,34.31z M144,8.53c-5.91,0-10.71,4.81-10.71,10.71c0,5.91,4.81,10.71,10.71,10.71
					s10.71-4.81,10.71-10.71C154.71,13.34,149.91,8.53,144,8.53z"/>
			</g>
			<g>
				<path class="st0" d="M174.79,26.63l-1.27-1.77C165.39,13.51,154.9,7.25,144,7.25c-10.9,0-21.39,6.25-29.52,17.61l-1.27,1.77
					l-3.54-2.54l1.27-1.77C119.91,9.8,131.65,2.9,144,2.9c12.35,0,24.09,6.9,33.06,19.43l1.27,1.77L174.79,26.63z"/>
			</g>
			<circle class="st0" cx="144" cy="19.24" r="6.08"/>
		</g>
	</g>
</g>
</svg>
