<?xml version="1.0" encoding="utf-8"?>
<!-- Generator: Adobe Illustrator 24.1.2, SVG Export Plug-In . SVG Version: 6.00 Build 0)  -->
<svg version="1.1" id="Capa_1" xmlns="http://www.w3.org/2000/svg" xmlns:xlink="http://www.w3.org/1999/xlink" x="0px" y="0px"
	 viewBox="0 0 310 65" style="enable-background:new 0 0 310 65;" xml:space="preserve">
<style type="text/css">
	.st0{fill:#14143C;}
	.st1{fill:url(#SVGID_1_);}
	.st2{fill:url(#SVGID_2_);}
</style>
<g>
	<g>
		<g>
			<path class="st0" d="M103,5.9c-0.7,0.6-1.3,1.4-1.6,2.2c-0.4,0.9-0.6,1.7-0.6,2.4c0,0.7,0.1,1.3,0.3,1.9c0.2,0.6,0.4,1.1,0.7,1.5
				c2-1.2,4.2-2.3,6.5-3.1c2.3-0.8,4.7-1.2,7.1-1.2c0.6,0,1.1,0,1.7,0.1c0.6,0.1,1.2,0.3,1.7,0.5c0.5,0.2,0.9,0.6,1.2,1
				c0.3,0.4,0.5,1,0.5,1.6c0,1-0.3,1.9-0.9,2.6c-0.6,0.7-1.3,1.3-2.3,1.7c-0.9,0.4-2,0.7-3.1,0.9c-1.1,0.2-2.3,0.3-3.4,0.3
				c-1.4,0-2.9-0.2-4.5-0.6c-1.6-0.4-2.9-1.2-4.1-2.4c-0.9,0.6-1.8,1.5-2.8,2.5c-0.9,1-1.8,2.2-2.6,3.4c-0.8,1.2-1.4,2.5-2,3.7
				c-0.5,1.3-0.8,2.5-0.8,3.5c0,0.7,0.1,1.3,0.2,1.8c0.1,0.6,0.3,1.1,0.6,1.5c0.3,0.4,0.7,0.8,1.2,1c0.5,0.2,1.1,0.4,1.9,0.4
				c0.9,0,1.8-0.2,2.7-0.5c0.9-0.3,1.7-0.8,2.5-1.2c0.8-0.5,1.4-1,2-1.5c0.6-0.5,0.9-0.9,1-1.2c0.3-0.7,0.6-1.3,0.9-1.8
				c0.3-0.6,0.6-1,0.9-1.5c0.3-0.4,0.8-0.8,1.2-1c0.5-0.2,1.1-0.4,1.8-0.4c0.2,0,0.4,0,0.5,0.1c0.2,0.1,0.3,0.3,0.3,0.6
				c0,0.3-0.3,0.9-0.9,1.6c-0.6,0.7-1.3,1.5-1.9,2.3c-1,1.7-2.1,3.4-3.3,5.2c-1.2,1.8-2.6,3.4-4.1,4.8c-1.5,1.4-3.2,2.6-5.1,3.5
				c-1.9,0.9-3.9,1.3-6.1,1.3c-1.1,0-2-0.1-3-0.4c-0.9-0.3-1.7-0.7-2.4-1.3c-0.7-0.5-1.2-1.2-1.6-2c-0.4-0.8-0.6-1.6-0.6-2.5
				c0-0.8,0.2-1.5,0.6-2.1c0.4-0.6,1-0.9,1.9-0.9c0.4,0,0.8,0.2,1.1,0.5c0.3,0.3,0.5,0.7,0.5,1.1c0,0.5-0.1,0.9-0.4,1.2
				c-0.3,0.3-0.7,0.5-1.2,0.4c-0.1,0-0.2,0-0.4,0c-0.2,0-0.3-0.1-0.4-0.1c-0.1,0.2-0.1,0.4-0.1,0.6c0,0.2,0,0.3,0,0.5
				c0,0.7,0.2,1.3,0.5,1.9c0.3,0.6,0.8,1,1.3,1.4c0.6,0.4,1.2,0.7,1.9,0.9c0.7,0.2,1.5,0.3,2.3,0.3c1.7,0,3.2-0.4,4.6-1.2
				c1.4-0.8,2.7-1.8,3.9-3c1.2-1.2,2.3-2.5,3.2-3.9c1-1.4,1.9-2.7,2.6-3.9c0,0-0.1-0.1-0.1-0.1c-1.1,0.9-2.3,1.7-3.7,2.3
				c-1.4,0.6-2.8,0.9-4.3,0.9c-1.7,0-3.1-0.5-4.1-1.5c-1-1-1.5-2.4-1.5-4.1c0-1.4,0.3-2.7,1-4.1c0.7-1.4,1.5-2.7,2.5-3.9
				c1-1.2,2.1-2.4,3.3-3.4c1.2-1,2.3-1.9,3.4-2.6c-0.8-1.1-1.2-2.3-1.2-3.7c0-1,0.2-2,0.7-2.8c0.5-0.9,1.1-1.6,1.7-2.2
				C102.8,5.7,102.8,5.7,103,5.9z M118.6,12.5c0-0.6-0.1-1-0.4-1.3c-0.3-0.3-0.6-0.5-1-0.7c-0.4-0.2-0.9-0.2-1.3-0.3
				c-0.5,0-0.9,0-1.3,0c-1,0-2.1,0.1-3.1,0.4c-1.1,0.3-2.1,0.6-3.2,1.1c-1,0.4-2,0.9-3,1.5c-1,0.6-1.8,1.2-2.6,1.8
				c0.8,0.9,1.9,1.6,3.3,2.1c1.4,0.5,3.1,0.7,4.9,0.7c1,0,2-0.1,2.9-0.3c0.9-0.2,1.8-0.6,2.5-1c0.7-0.4,1.3-1,1.7-1.7
				C118.4,14.1,118.6,13.3,118.6,12.5z"/>
			<g>
				<path class="st0" d="M147.8,27.7c0-0.2,0.1-0.3,0.1-0.6c0.8,0,1.2,0,2,0c0.9-1.4,1.8-2.8,2.8-4.2c0.9-1.4,2-2.8,3.1-4
					c1.1-1.3,2.4-2.4,3.8-3.4s2.9-1.7,4.6-2.1c0,0,0-0.1,0-0.1c-0.8,0-1.6,0-2.5,0c-0.8,0-1.7,0-2.7-0.1c-1,0-2.1-0.1-3.3-0.1
					c-1.2,0-2.6,0-4.1,0c-3.1,0-5.9,0.3-8.4,0.8c-2.5,0.5-4.7,1.3-6.4,2.2c-1.8,1-3.2,2.1-4.2,3.4c-1,1.3-1.5,2.7-1.6,4.3
					c-0.1,1.5,0.5,2.7,1.6,3.6c1.1,0.9,2.7,1.3,4.6,1.3c1.3,0,2.6-0.2,3.9-0.6c1.3-0.4,2.5-1,3.6-1.8c1.1-0.8,2-1.7,2.7-2.7
					c0.7-1.1,1-2.2,1-3.4c0-0.5,0-1-0.1-1.4c-0.1-0.4-0.2-0.8-0.3-1.1c0.2,0,0.3-0.1,0.5-0.1c0.3,0.9,0.5,1.8,0.5,2.7
					c0,1.1-0.3,2.2-1,3.3c-0.7,1.1-1.5,2.1-2.6,2.9c-1.1,0.9-2.4,1.5-3.8,2.1c-1.4,0.5-2.9,0.8-4.5,0.8c-2.1,0-3.7-0.5-4.9-1.4
					c-1.2-0.9-1.8-2.2-1.8-3.9c0-1.7,0.6-3.3,1.7-4.9c1.2-1.6,2.8-3,5-4.2c2.2-1.2,4.9-2.2,8.1-2.9c3.2-0.7,6.9-1.1,11-1.1
					c2.7,0,5.1,0,7.1,0.1c2,0.1,3.5,0.1,4.5,0.1c0.7,0,1.4,0,1.9-0.1c0.6-0.1,1.1-0.1,1.6-0.1c0.6,0,1.1,0,1.6,0.1
					c0.4,0.1,0.7,0.3,0.7,0.8c0,0.4-0.1,0.7-0.2,0.9c-0.2,0.2-0.5,0.4-1.1,0.5c-0.6,0.1-1.5,0.1-2.7,0.2c-1.2,0-3.2-0.3-4.8,0
					c-1.6,0.3-3.3,1.5-4.5,2.6c-1.2,1.1-2.3,2.2-3.1,3.5c-0.9,1.3-1.7,2.5-2.4,3.9c-0.7,1.3-1.5,2.6-2.3,3.7
					c0.4-0.1,0.8-0.1,1.4-0.1c0.6,0,1.1-0.1,1.7-0.1c0.6-0.1,1.1-0.1,1.5-0.2c0.5-0.1,0.8-0.2,0.9-0.4c0.3-0.4,0.6-0.7,1-1.1
					c0.4-0.4,0.9-0.6,1.6-0.6c0.4,0,0.8,0.1,1.2,0.2c-1.3,1.1-2.5,2.3-3.6,3.5c-1.1,1.3-2.1,2.6-3,4c-0.1-0.1-0.2-0.1-0.3-0.1
					c0.3-0.9,0.7-1.7,1.1-2.5c0.4-0.8,0.9-1.6,1.3-2.4c-0.4,0.1-0.8,0.1-1.3,0.2c-0.5,0-1,0.1-1.4,0.1c-0.5,0-0.9,0.1-1.3,0.1
					c-0.4,0-0.7,0.1-1,0.1c-1.1,1.9-2.3,3.7-3.6,5.5c-1.3,1.8-2.7,3.5-4.3,5c-1.6,1.5-3.4,2.7-5.3,3.6c-2,0.9-4.2,1.4-6.6,1.4
					c-0.8,0-1.7-0.1-2.7-0.3c-0.9-0.2-1.8-0.6-2.6-1c-0.8-0.5-1.5-1.1-2-1.8c-0.5-0.7-0.8-1.6-0.8-2.6c0-0.6,0.2-1.2,0.5-1.7
					c0.4-0.5,0.9-0.8,1.6-0.8c0.5,0,0.9,0.2,1.1,0.5c0.3,0.3,0.4,0.7,0.4,1.2c0,0.4-0.1,0.8-0.3,1.1c-0.2,0.3-0.5,0.5-1,0.5
					c-0.2,0-0.3,0-0.5,0c0,0.1,0,0.4,0.1,0.9c0.1,0.5,0.3,1,0.7,1.5c0.4,0.5,1,1,1.9,1.4c0.9,0.4,2.1,0.6,3.7,0.6
					c2,0,3.9-0.5,5.5-1.5c1.7-1,3.2-2.3,4.6-3.7c1.4-1.5,2.6-3.1,3.7-4.8c1.1-1.7,2.1-3.3,3-4.7C148.9,27.7,148.5,27.7,147.8,27.7z"
					/>
			</g>
			<circle class="st0" cx="110.7" cy="41.2" r="1.6"/>
			<path class="st0" d="M175.8,26.7c1.2,0,1.8,0,3,0c-1.1,1.6-2.2,3.2-3.3,4.7c-1.1,1.5-2,2.9-2.8,4.2c-0.8,1.3-1.5,2.4-2,3.4
				c-0.5,1-0.7,1.7-0.7,2.3c0,0.8,0.4,1.2,1.3,1.2c0.7,0,1.5-0.3,2.5-1s2.1-1.5,3.3-2.6c1.2-1.1,2.4-2.4,3.6-3.9
				c1.2-1.5,2.4-3.1,3.5-4.7c0.1,0,0.2,0.1,0.3,0.1c-0.8,1.3-1.8,2.6-3,4.1c-1.1,1.5-2.3,2.8-3.6,4.1c-1.2,1.3-2.5,2.3-3.7,3.2
				c-1.2,0.9-2.4,1.3-3.5,1.3c-0.9,0-1.6-0.2-2-0.7c-0.4-0.4-0.6-1-0.6-1.6c0-0.4,0.1-0.9,0.2-1.3c0.1-0.4,0.3-0.8,0.4-1.3
				c0,0-0.1,0-0.1,0c-0.4,0.4-0.9,0.9-1.5,1.5c-0.6,0.6-1.3,1.1-2,1.6c-0.7,0.5-1.4,0.9-2.2,1.3c-0.7,0.3-1.5,0.5-2.1,0.5
				c-1.1,0-2-0.4-2.4-1.1c-0.5-0.7-0.7-1.5-0.7-2.4c0-1.3,0.4-2.7,1.2-4.2c0.8-1.5,1.8-3,3.1-4.3c1.2-1.3,2.6-2.5,4-3.4
				c1.5-0.9,2.8-1.3,4.1-1.3c0.6,0,1.2,0.1,1.6,0.3c0.5,0.2,0.9,0.4,1.2,0.7c0.3,0.3,0.6,0.6,0.7,1c0.2,0.4,0.3,0.8,0.4,1.2
				c0,0,0.1,0,0.1,0C174.9,28.4,175.2,27.8,175.8,26.7z M160.6,39.8c0,0.7,0.1,1.3,0.4,1.7c0.3,0.4,0.7,0.6,1.2,0.6
				c0.5,0,1.1-0.2,1.9-0.6c0.7-0.4,1.5-0.9,2.2-1.6c0.8-0.7,1.5-1.4,2.3-2.3c0.8-0.9,1.4-1.8,2-2.7c0.6-1,1.1-1.9,1.4-2.9
				c0.4-1,0.6-1.9,0.6-2.8c0-0.7-0.2-1.3-0.6-1.6c-0.4-0.4-0.9-0.6-1.5-0.6c-0.9,0-2,0.4-3.1,1.2c-1.1,0.8-2.2,1.8-3.3,3.1
				c-1,1.3-1.9,2.6-2.6,4.2C161,36.9,160.6,38.4,160.6,39.8z"/>
			<path class="st0" d="M199.7,10.4c-2.8,4.2-5.2,7.8-7.2,10.9c-2,3.1-3.8,5.7-5.3,7.8c-1.5,2.2-2.7,4-3.6,5.4
				c-0.9,1.4-1.7,2.6-2.2,3.5c-0.5,0.9-0.9,1.6-1.1,2.1c-0.2,0.5-0.3,1-0.3,1.3c0,0.8,0.3,1.2,1,1.2c0.8,0,1.7-0.3,2.7-1
				c1-0.6,2.2-1.5,3.4-2.6c1.2-1.1,2.4-2.4,3.7-3.9c1.2-1.5,2.5-3,3.6-4.7c0.2,0.1,0.3,0.1,0.5,0.2c-1.1,1.6-2.3,3.1-3.5,4.6
				c-1.2,1.5-2.4,2.8-3.6,3.8c-1.5,1.4-2.8,2.5-3.9,3.1c-1.1,0.7-2.1,1-3,1c-1,0-1.7-0.2-2.1-0.7s-0.6-1-0.6-1.7
				c0-0.7,0.1-1.3,0.3-2c0.2-0.7,0.6-1.5,1.2-2.5c0.6-1,1.3-2.2,2.2-3.6c0.9-1.4,2-3.1,3.4-5.1c1.3-2,2.9-4.5,4.8-7.3
				c1.8-2.8,3.9-6.1,6.3-9.9C197.7,10.4,198.4,10.4,199.7,10.4z"/>
			<path class="st0" d="M210,31.1c-0.7,1.1-1.7,2.4-2.8,3.7c-1.2,1.3-2.4,2.6-3.8,3.7c-1.7,1.4-3.4,2.5-5,3.4
				c-1.7,0.9-3.3,1.3-4.9,1.3c-1.1,0-2.1-0.3-2.9-0.9c-0.8-0.6-1.2-1.5-1.2-2.7c0-1.5,0.4-3,1.3-4.6c0.9-1.6,1.9-3,3.2-4.3
				s2.7-2.3,4.2-3.1c1.5-0.8,3-1.2,4.4-1.2c0.9,0,1.7,0.2,2.4,0.5c0.7,0.3,1,0.9,1,1.7c0,0.4-0.1,0.7-0.3,0.9
				c-0.2,0.2-0.5,0.5-0.7,0.6c-0.3,0.2-0.6,0.3-1,0.3c-0.4,0.1-0.7,0.1-1,0.2c0.1-0.3,0.2-0.6,0.3-1c0.1-0.3,0.1-0.7,0.1-1
				c0-1.1-0.5-1.7-1.6-1.7c-0.8,0-1.8,0.4-2.9,1.2c-1.1,0.8-2.1,1.8-3.1,3c-1,1.2-1.8,2.5-2.5,4c-0.7,1.5-1,2.9-1,4.2
				c0,0.8,0.2,1.6,0.6,2.1c0.4,0.6,1,0.9,1.8,0.9c1.1,0,2.3-0.4,3.7-1.1c1.4-0.7,2.8-1.6,4.1-2.7c1.4-1.1,2.7-2.3,4-3.7
				c1.3-1.4,2.4-2.8,3.2-4.1C209.8,30.9,209.9,31,210,31.1z"/>
			<path class="st0" d="M230.8,31c-0.7,0.8-1.6,1.5-2.5,2c-0.9,0.5-1.8,0.7-2.7,0.7c-0.9,0-1.6-0.2-2.2-0.6
				c-0.6-0.4-1.1-0.8-1.4-1.4c0,0-0.1,0-0.1,0c-0.3,1.2-0.9,2.4-1.7,3.8c-0.8,1.3-1.8,2.6-3,3.7c-1.2,1.1-2.4,2-3.8,2.8
				c-1.4,0.7-2.8,1.1-4.3,1.1c-1.3,0-2.3-0.4-3-1.2c-0.7-0.8-1-1.8-1-3.1c0-0.7,0.2-1.5,0.5-2.4c0.3-0.9,0.8-1.8,1.4-2.7
				c0.6-0.9,1.3-1.8,2.1-2.7c0.8-0.9,1.7-1.7,2.7-2.4c1-0.7,2-1.3,3-1.7c1.1-0.4,2.1-0.6,3.2-0.6c1.3,0,2.3,0.4,3,1.1
				c0.7,0.7,1.1,1.7,1.1,2.9c0,0.7,0.4,1.4,1,2c0.6,0.6,1.4,0.9,2.5,0.9c0.9,0,1.8-0.2,2.6-0.7c0.8-0.5,1.6-1.1,2.3-1.8
				C230.6,30.8,230.7,30.9,230.8,31z M207.4,40c0,0.8,0.2,1.4,0.5,1.9c0.3,0.5,0.8,0.7,1.4,0.7c0.8,0,1.7-0.2,2.5-0.7
				c0.8-0.4,1.6-1,2.4-1.8c0.8-0.7,1.5-1.6,2.1-2.5c0.7-0.9,1.2-1.9,1.7-2.9c0.5-1,0.9-2,1.1-2.9s0.4-1.8,0.4-2.6
				c0-0.7-0.2-1.2-0.5-1.7c-0.3-0.4-0.8-0.7-1.5-0.7c-0.7,0-1.3,0.2-2.1,0.6c-0.7,0.4-1.5,1-2.3,1.7c-0.8,0.7-1.5,1.5-2.2,2.4
				c-0.7,0.9-1.3,1.8-1.8,2.8c-0.5,1-1,1.9-1.3,2.9C207.5,38.2,207.4,39.1,207.4,40z"/>
			<path class="st0" d="M235.2,26.7c-2.5,3.4-3.7,5.1-6.1,8.5c0,0,0.1,0.1,0.1,0.1c0.7-0.8,1.4-1.7,2.3-2.7c0.9-1,1.8-2,2.8-3
				c1-0.9,2-1.7,3.1-2.4c1.1-0.6,2.1-1,3.2-1c0.9,0,1.7,0.3,2.2,0.8c0.5,0.5,0.8,1.2,0.8,2c0,0.5-0.2,1.1-0.5,1.8
				c-0.4,0.7-0.8,1.4-1.3,2.2c-0.5,0.8-1.1,1.6-1.7,2.4c-0.6,0.8-1.2,1.6-1.7,2.3c-0.5,0.7-1,1.4-1.3,2c-0.4,0.6-0.5,1.1-0.5,1.5
				c0,0.9,0.4,1.3,1.3,1.3c1,0,2-0.3,3.2-1c1.1-0.7,2.5-1.8,4-3.4c0.6-0.6,1.2-1.3,1.9-2c0.6-0.7,1.2-1.5,1.8-2.2
				c0.6-0.7,1.1-1.4,1.6-2.1c0.5-0.7,0.9-1.2,1.1-1.6c0.1,0.1,0.2,0.1,0.3,0.2c-0.6,0.9-1.4,2-2.4,3.3c-1,1.3-2,2.6-3.2,3.8
				c-0.7,0.7-1.4,1.5-2.1,2.1c-0.7,0.7-1.4,1.3-2.1,1.8c-0.7,0.5-1.4,0.9-2.1,1.2c-0.7,0.3-1.4,0.4-2.1,0.4c-0.9,0-1.6-0.2-2.2-0.7
				c-0.6-0.5-0.9-1.2-0.9-2c0-0.9,0.4-1.9,1.1-3c0.7-1.1,1.6-2.2,2.5-3.3c0.9-1.1,1.7-2.2,2.5-3.2c0.7-1,1.1-1.9,1.1-2.7
				c0-0.4-0.1-0.7-0.4-0.8c-0.2-0.2-0.6-0.3-1-0.3c-0.8,0-1.6,0.3-2.6,0.9c-1,0.6-1.9,1.3-3,2.3c-1,0.9-2,2-3,3.2
				c-1,1.2-1.9,2.3-2.8,3.5c-0.9,1.2-1.6,2.3-2.3,3.4c-0.7,1.1-1.2,2-1.5,2.7c-1.2,0-1.7,0-2.9,0c0.8-1.4,1.7-2.8,2.6-4.2
				c0.9-1.4,1.8-2.8,2.7-4.2c0.9-1.4,1.8-2.7,2.6-4c0.8-1.3,1.6-2.5,2.2-3.5C233.4,26.8,234,26.8,235.2,26.7z"/>
			<path class="st0" d="M263.7,26.7c1.2,0,1.8,0,3,0c-1.1,1.6-2.2,3.2-3.3,4.7c-1.1,1.5-2,2.9-2.8,4.2c-0.8,1.3-1.5,2.4-2,3.4
				c-0.5,1-0.7,1.7-0.7,2.3c0,0.8,0.4,1.2,1.3,1.2c0.7,0,1.5-0.3,2.5-1c1-0.6,2.1-1.5,3.3-2.6c1.2-1.1,2.4-2.4,3.6-3.9
				c1.2-1.5,2.4-3.1,3.5-4.7c0.1,0,0.2,0.1,0.3,0.1c-0.8,1.3-1.8,2.6-3,4.1c-1.1,1.5-2.3,2.8-3.6,4.1c-1.2,1.3-2.5,2.3-3.7,3.2
				c-1.2,0.9-2.4,1.3-3.5,1.3c-0.9,0-1.6-0.2-2-0.7c-0.4-0.4-0.6-1-0.6-1.6c0-0.4,0.1-0.9,0.2-1.3c0.1-0.4,0.3-0.8,0.4-1.3
				c0,0-0.1,0-0.1,0c-0.4,0.4-0.9,0.9-1.5,1.5c-0.6,0.6-1.3,1.1-2,1.6c-0.7,0.5-1.4,0.9-2.2,1.3c-0.7,0.3-1.5,0.5-2.1,0.5
				c-1.1,0-2-0.4-2.4-1.1c-0.5-0.7-0.7-1.5-0.7-2.4c0-1.3,0.4-2.7,1.2-4.2c0.8-1.5,1.8-3,3.1-4.3c1.2-1.3,2.6-2.5,4-3.4
				c1.5-0.9,2.8-1.3,4.1-1.3c0.6,0,1.2,0.1,1.6,0.3c0.5,0.2,0.9,0.4,1.2,0.7c0.3,0.3,0.6,0.6,0.7,1c0.2,0.4,0.3,0.8,0.4,1.2
				c0,0,0.1,0,0.1,0C262.7,28.4,263,27.8,263.7,26.7z M248.4,39.8c0,0.7,0.1,1.3,0.4,1.7c0.3,0.4,0.7,0.6,1.2,0.6
				c0.5,0,1.1-0.2,1.9-0.6c0.7-0.4,1.5-0.9,2.2-1.6c0.8-0.7,1.5-1.4,2.3-2.3c0.8-0.9,1.4-1.8,2-2.7c0.6-1,1.1-1.9,1.4-2.9
				c0.4-1,0.6-1.9,0.6-2.8c0-0.7-0.2-1.3-0.6-1.6c-0.4-0.4-0.9-0.6-1.5-0.6c-0.9,0-2,0.4-3.1,1.2c-1.1,0.8-2.2,1.8-3.3,3.1
				c-1,1.3-1.9,2.6-2.6,4.2C248.8,36.9,248.4,38.4,248.4,39.8z"/>
			<path class="st0" d="M276.6,26.7c-2.4,3.4-3.5,5.2-5.9,8.6c0,0,0.1,0.1,0.1,0.1c0.4-0.5,1-1.1,1.7-1.8c0.7-0.7,1.4-1.4,2.2-2.1
				c0.8-0.7,1.6-1.5,2.5-2.2c0.9-0.7,1.7-1.3,2.6-1.9c0.2-0.3,0.3-0.6,0.5-0.7c0.2-0.2,0.6-0.3,1.1-0.3c0.3,0,0.6,0,0.9,0
				c0.3,0,0.5,0,0.8,0.1c-0.5,0.5-1,1.2-1.5,1.9s-0.7,1.6-0.7,2.5c0,0.7,0.2,1.3,0.5,1.7c0.4,0.4,0.8,0.6,1.3,0.6
				c0.5,0,0.9-0.1,1.4-0.3c0.4-0.2,0.9-0.4,1.3-0.7c0.4-0.3,0.8-0.6,1.2-0.9c0.4-0.3,0.7-0.6,1-0.8c0.1,0.1,0.2,0.1,0.3,0.2
				c-0.3,0.3-0.7,0.6-1.1,1c-0.4,0.4-0.8,0.7-1.3,1c-0.5,0.3-1,0.6-1.5,0.8c-0.5,0.2-1.1,0.3-1.6,0.3c-1,0-1.8-0.3-2.4-0.9
				c-0.6-0.6-0.9-1.5-0.9-2.5c0-0.7,0.2-1.4,0.5-2c0,0-0.1-0.1-0.1-0.1c-1.3,0.9-2.7,2-4.2,3.4c-1.5,1.4-3.1,3.1-4.8,5
				c-0.6,0.7-1.3,1.6-1.9,2.7c-0.7,1.1-1.2,2.3-1.7,3.4c-1.2,0-1.8,0-3,0c1.7-2.7,3.4-5.3,5-8c1.7-2.6,3.4-5.3,5.2-8.1
				C274.9,26.7,275.5,26.7,276.6,26.7z"/>
			<path class="st0" d="M308.3,31c-0.7,0.8-1.6,1.5-2.5,2c-0.9,0.5-1.8,0.7-2.7,0.7c-0.9,0-1.6-0.2-2.2-0.6
				c-0.6-0.4-1.1-0.8-1.4-1.4c0,0-0.1,0-0.1,0c-0.3,1.2-0.9,2.4-1.7,3.8c-0.8,1.3-1.8,2.6-3,3.7c-1.2,1.1-2.4,2-3.8,2.8
				c-1.4,0.7-2.8,1.1-4.3,1.1c-1.3,0-2.3-0.4-3-1.2c-0.7-0.8-1-1.8-1-3.1c0-0.7,0.2-1.5,0.5-2.4c0.3-0.9,0.8-1.8,1.4-2.7
				c0.6-0.9,1.3-1.8,2.1-2.7c0.8-0.9,1.7-1.7,2.7-2.4c1-0.7,2-1.3,3-1.7c1.1-0.4,2.1-0.6,3.2-0.6c1.3,0,2.3,0.4,3,1.1
				c0.7,0.7,1.1,1.7,1.1,2.9c0,0.7,0.4,1.4,1,2c0.6,0.6,1.4,0.9,2.5,0.9c0.9,0,1.8-0.2,2.6-0.7c0.8-0.5,1.6-1.1,2.3-1.8
				C308.1,30.8,308.1,30.9,308.3,31z M284.9,40c0,0.8,0.2,1.4,0.5,1.9c0.3,0.5,0.8,0.7,1.4,0.7c0.8,0,1.7-0.2,2.5-0.7
				c0.8-0.4,1.6-1,2.4-1.8c0.8-0.7,1.5-1.6,2.1-2.5c0.7-0.9,1.2-1.9,1.7-2.9c0.5-1,0.9-2,1.1-2.9c0.3-0.9,0.4-1.8,0.4-2.6
				c0-0.7-0.2-1.2-0.5-1.7c-0.3-0.4-0.8-0.7-1.5-0.7c-0.7,0-1.3,0.2-2.1,0.6c-0.7,0.4-1.5,1-2.3,1.7c-0.8,0.7-1.5,1.5-2.2,2.4
				c-0.7,0.9-1.3,1.8-1.8,2.8c-0.5,1-1,1.9-1.3,2.9C285,38.2,284.9,39.1,284.9,40z"/>
		</g>
	</g>
	<g>
		<g>
			<g>
				<g>
					<g>
						<g>
							<g>
								<path class="st0" d="M177.7,56.4h1.8c1.6,0,2.5,0.8,2.5,2.5c0,1.8-0.8,2.8-2.5,2.8h-1.8V56.4z M178.4,61.1h1.2
									c0.5,0,1.8-0.1,1.8-2.1c0-1.3-0.5-2-1.8-2h-1.2V61.1z"/>
								<path class="st0" d="M185.6,56.4h0.7v5.3h-0.7V56.4z"/>
								<path class="st0" d="M193.1,57.9c-0.1-0.8-0.6-1.1-1.3-1.1c-0.6,0-1.2,0.2-1.2,0.9c0,0.7,0.8,0.7,1.7,0.9
									c0.8,0.2,1.7,0.5,1.7,1.5c0,1.1-1.1,1.6-2.1,1.6c-1.2,0-2.2-0.6-2.2-1.9h0.7c0,0.9,0.7,1.3,1.5,1.3c0.6,0,1.3-0.2,1.3-1
									c0-0.7-0.8-0.9-1.7-1c-0.8-0.2-1.7-0.4-1.7-1.4c0-1.1,1-1.6,1.9-1.6c1.1,0,1.9,0.5,2,1.7H193.1z"/>
								<path class="st0" d="M198.5,56.9h-1.8v-0.6h4.2v0.6h-1.8v4.7h-0.7V56.9z"/>
								<path class="st0" d="M204.1,56.4h0.7v5.3h-0.7V56.4z"/>
								<path class="st0" d="M208.6,56.4h0.8l2.8,4.3h0v-4.3h0.7v5.3H212l-2.8-4.3h0v4.3h-0.7V56.4z"/>
								<path class="st0" d="M220.2,58c-0.1-0.7-0.8-1.1-1.5-1.1c-1.3,0-1.8,1-1.8,2.1c0,1.2,0.5,2.2,1.8,2.2c0.9,0,1.5-0.7,1.5-1.5
									h0.7c-0.1,1.3-1,2.1-2.3,2.1c-1.6,0-2.4-1.2-2.4-2.8c0-1.5,0.9-2.8,2.5-2.8c1.1,0,2,0.6,2.2,1.7H220.2z"/>
								<path class="st0" d="M224.4,56.4h0.7v5.3h-0.7V56.4z"/>
								<path class="st0" d="M231.1,56.2c1.7,0,2.5,1.3,2.5,2.8c0,1.4-0.9,2.8-2.5,2.8s-2.5-1.3-2.5-2.8
									C228.6,57.6,229.4,56.2,231.1,56.2z M231.1,61.2c1.3,0,1.8-1.1,1.8-2.2c0-1.1-0.5-2.2-1.8-2.2s-1.8,1.1-1.8,2.2
									C229.3,60.1,229.8,61.2,231.1,61.2z M231.3,54.9h0.8l-1,1.1h-0.5L231.3,54.9z"/>
								<path class="st0" d="M237.1,56.4h0.8l2.8,4.3h0v-4.3h0.7v5.3h-0.8l-2.8-4.3h0v4.3h-0.7V56.4z"/>
								<path class="st0" d="M249.7,56.4h3.7v0.6h-3v1.7h2.8v0.6h-2.8v1.8h3v0.6h-3.7V56.4z"/>
								<path class="st0" d="M256.7,56.4h0.8l2.8,4.3h0v-4.3h0.7v5.3h-0.8l-2.8-4.3h0v4.3h-0.7V56.4z"/>
								<path class="st0" d="M271.6,56.2c1.7,0,2.5,1.3,2.5,2.8c0,1.4-0.9,2.8-2.5,2.8c-1.7,0-2.5-1.3-2.5-2.8
									C269,57.6,269.9,56.2,271.6,56.2z M271.6,61.2c1.3,0,1.8-1.1,1.8-2.2c0-1.1-0.5-2.2-1.8-2.2c-1.3,0-1.8,1.1-1.8,2.2
									C269.8,60.1,270.3,61.2,271.6,61.2z M271.8,54.9h0.8l-1,1.1h-0.5L271.8,54.9z"/>
								<path class="st0" d="M277.6,56.4h2.3c1.1,0,1.6,0.6,1.6,1.6c0,1-0.6,1.6-1.6,1.6h-1.6v2.2h-0.7V56.4z M278.3,58.9h1.4
									c0.8,0,1.2-0.3,1.2-1c0-0.6-0.4-1-1.2-1h-1.4V58.9z"/>
								<path class="st0" d="M286.2,56.9h-1.8v-0.6h4.2v0.6h-1.8v4.7h-0.7V56.9z"/>
								<path class="st0" d="M291.8,56.4h0.7v5.3h-0.7V56.4z"/>
								<path class="st0" d="M300,58c-0.1-0.7-0.8-1.1-1.5-1.1c-1.3,0-1.8,1-1.8,2.1c0,1.2,0.5,2.2,1.8,2.2c0.9,0,1.5-0.7,1.5-1.5
									h0.7c-0.1,1.3-1,2.1-2.3,2.1c-1.6,0-2.5-1.2-2.5-2.8c0-1.5,0.9-2.8,2.5-2.8c1.1,0,2,0.6,2.2,1.7H300z"/>
								<path class="st0" d="M305.5,56.4h0.8l2.1,5.3h-0.8l-0.6-1.6h-2.2l-0.6,1.6h-0.7L305.5,56.4z M305,59.5h1.8l-0.9-2.5h0
									L305,59.5z"/>
							</g>
						</g>
					</g>
				</g>
			</g>
		</g>
	</g>
	<g>
		<g>
			
				<radialGradient id="SVGID_1_" cx="13.3194" cy="36.8145" r="26.8706" gradientTransform="matrix(0.9908 0 0 0.9908 24.0367 -2.6579)" gradientUnits="userSpaceOnUse">
				<stop  offset="0.2987" style="stop-color:#14143C"/>
				<stop  offset="0.3868" style="stop-color:#18183F"/>
				<stop  offset="0.4782" style="stop-color:#25254A"/>
				<stop  offset="0.571" style="stop-color:#39395B"/>
				<stop  offset="0.6649" style="stop-color:#565673"/>
				<stop  offset="0.7597" style="stop-color:#7C7C92"/>
				<stop  offset="0.8551" style="stop-color:#AAAAB8"/>
				<stop  offset="0.9493" style="stop-color:#DFDFE5"/>
				<stop  offset="1" style="stop-color:#FFFFFF"/>
			</radialGradient>
			<path class="st1" d="M37.2,46.1C24.4,46.1,12.3,39,3,26l-1.3-1.8l3.7-2.6l1.3,1.8c8.4,11.8,19.3,18.2,30.6,18.2
				c11.3,0,22.2-6.5,30.6-18.2l1.3-1.8l3.7,2.6L71.5,26C62.2,39,50,46.1,37.2,46.1z"/>
		</g>
		<g>
			<g>
				<linearGradient id="SVGID_2_" gradientUnits="userSpaceOnUse" x1="37.2337" y1="35.7795" x2="37.2337" y2="4.5411">
					<stop  offset="0.15" style="stop-color:#14143C"/>
					<stop  offset="0.2202" style="stop-color:#363658"/>
					<stop  offset="0.3794" style="stop-color:#7C7C93"/>
					<stop  offset="0.5227" style="stop-color:#B5B5C1"/>
					<stop  offset="0.645" style="stop-color:#DDDDE3"/>
					<stop  offset="0.7414" style="stop-color:#F6F6F7"/>
					<stop  offset="0.8" style="stop-color:#FFFFFF"/>
				</linearGradient>
				<path class="st2" d="M37.2,35.8c-8.6,0-15.6-7-15.6-15.6c0-8.6,7-15.6,15.6-15.6s15.6,7,15.6,15.6
					C52.9,28.8,45.8,35.8,37.2,35.8z M37.2,9.1c-6.1,0-11.1,5-11.1,11.1c0,6.1,5,11.1,11.1,11.1s11.1-5,11.1-11.1
					C48.3,14,43.4,9.1,37.2,9.1z"/>
			</g>
			<g>
				<path class="st0" d="M69.1,27.8L67.8,26C59.4,14.2,48.5,7.7,37.2,7.7S15.1,14.2,6.6,26l-1.3,1.8l-3.7-2.6L3,23.4
					c9.3-13,21.5-20.1,34.3-20.1c12.8,0,25,7.2,34.3,20.1l1.3,1.8L69.1,27.8z"/>
			</g>
			<circle class="st0" cx="37.2" cy="20.2" r="6.3"/>
		</g>
	</g>
</g>
</svg>
