<svg height="78.021" viewBox="0 0 75.667 78.021" width="75.667" xmlns="http://www.w3.org/2000/svg"><g fill="#fff"><path d="m857.442-178.231a2.726 2.726 0 0 1 -1.356.763 3.085 3.085 0 0 1 -1.629-.093l-2.747-.862a3.079 3.079 0 0 1 -1.391-.854 2.687 2.687 0 0 1 -.671-1.4 3.717 3.717 0 0 1 .154-1.741 3.823 3.823 0 0 1 .845-1.5 2.676 2.676 0 0 1 1.3-.78 2.81 2.81 0 0 1 1.565.067c.072.022.1.083.086.183l-.353 1.418-.007.024c-.026.08-.081.105-.169.078a1.42 1.42 0 0 0 -1.132.069 1.453 1.453 0 0 0 -.7.9 1.47 1.47 0 0 0 .058 1.148 1.418 1.418 0 0 0 .89.7l2.866.9a1.4 1.4 0 0 0 1.12-.073 1.47 1.47 0 0 0 .7-.909 1.454 1.454 0 0 0 -.062-1.136 1.4 1.4 0 0 0 -.877-.7c-.087-.028-.116-.088-.086-.184l.5-1.372a.16.16 0 0 1 .068-.09.114.114 0 0 1 .1-.016 2.85 2.85 0 0 1 1.329.842 2.709 2.709 0 0 1 .636 1.388 3.753 3.753 0 0 1 -.161 1.719 3.664 3.664 0 0 1 -.876 1.511z" transform="translate(-849.209 209.704)"/><path d="m861.628-188.3a2.86 2.86 0 0 1 -1.559.378 3.262 3.262 0 0 1 -1.615-.535l-2.254-1.426a3.2 3.2 0 0 1 -1.16-1.22 2.833 2.833 0 0 1 -.316-1.564 3.6 3.6 0 0 1 .584-1.658 3.626 3.626 0 0 1 1.255-1.249 2.836 2.836 0 0 1 1.548-.385 3.2 3.2 0 0 1 1.6.526l2.254 1.433a3.3 3.3 0 0 1 1.181 1.233 2.822 2.822 0 0 1 .326 1.57 3.646 3.646 0 0 1 -.591 1.669 3.566 3.566 0 0 1 -1.253 1.228zm.2-3.212a1.591 1.591 0 0 0 -.753-.977l-2.317-1.466a1.628 1.628 0 0 0 -1.208-.271 1.462 1.462 0 0 0 -.97.706 1.447 1.447 0 0 0 -.216 1.169 1.63 1.63 0 0 0 .762.976l2.317 1.465a1.6 1.6 0 0 0 1.2.267 1.456 1.456 0 0 0 .959-.7 1.48 1.48 0 0 0 .229-1.164z" transform="translate(-850.487 212.498)"/><path d="m864.972-206.16a.147.147 0 0 1 .049-.1l1.077-.983a.144.144 0 0 1 .107-.039.144.144 0 0 1 .1.049l5.68 6.221a.146.146 0 0 1 .039.107.144.144 0 0 1 -.049.1l-1.04.95a.177.177 0 0 1 -.2.044l-5.98-1.762c-.029-.008-.049 0-.058.01s0 .034.019.058l3.564 3.867a.147.147 0 0 1 .039.108.144.144 0 0 1 -.049.1l-1.077.982a.143.143 0 0 1 -.107.04.148.148 0 0 1 -.1-.049l-5.679-6.221a.145.145 0 0 1 -.04-.108.146.146 0 0 1 .049-.1l1.04-.949a.18.18 0 0 1 .2-.044l5.954 1.753c.028.007.048 0 .058-.011s0-.034-.02-.058l-3.538-3.857a.145.145 0 0 1 -.038-.108z" transform="translate(-852.126 215.331)"/><path d="m877.6-214.034a.144.144 0 0 1 .088.074l.562 1.085a.144.144 0 0 1 .01.114.14.14 0 0 1 -.074.087l-1.98 1.026a.055.055 0 0 0 -.027.084l3.215 6.208a.145.145 0 0 1 .01.114.143.143 0 0 1 -.074.088l-1.294.671a.143.143 0 0 1 -.115.01.141.141 0 0 1 -.087-.074l-3.215-6.208a.056.056 0 0 0 -.084-.027l-1.926 1a.144.144 0 0 1 -.114.01.141.141 0 0 1 -.087-.074l-.562-1.084a.143.143 0 0 1 -.01-.115.144.144 0 0 1 .074-.087l5.577-2.889a.147.147 0 0 1 .113-.013z" transform="translate(-854.765 217.019)"/><path d="m890.482-208.588-.654-1.1a.074.074 0 0 0 -.073-.033l-2.977.731c-.024.006-.041.027-.049.063l-.059 1.272a.156.156 0 0 1 -.128.16l-1.537.378a.139.139 0 0 1 -.119-.016.138.138 0 0 1 -.043-.124l.6-8.822a.156.156 0 0 1 .128-.16l1.9-.467a.158.158 0 0 1 .188.083l4.624 7.538a.149.149 0 0 1 .027.058c.017.073-.018.12-.107.142l-1.537.378a.157.157 0 0 1 -.184-.081zm-3.6-1.823 2.13-.523c.049-.011.058-.04.031-.084l-1.973-3.327c-.016-.03-.031-.041-.047-.033a.057.057 0 0 0 -.026.051l-.182 3.856c0 .05.022.071.063.06z" transform="translate(-858.019 217.687)"/><path d="m897.531-209.5a2.734 2.734 0 0 1 -1.115-1.086 3.1 3.1 0 0 1 -.37-1.589l.053-2.879a3.09 3.09 0 0 1 .427-1.575 2.689 2.689 0 0 1 1.153-1.039 3.727 3.727 0 0 1 1.714-.343 3.811 3.811 0 0 1 1.682.386 2.677 2.677 0 0 1 1.115 1.03 2.819 2.819 0 0 1 .377 1.521c0 .075-.052.12-.152.134l-1.459.061h-.025c-.083 0-.124-.048-.122-.139a1.423 1.423 0 0 0 -.386-1.066 1.451 1.451 0 0 0 -1.058-.418 1.47 1.47 0 0 0 -1.085.379 1.418 1.418 0 0 0 -.424 1.051l-.055 3a1.4 1.4 0 0 0 .385 1.054 1.471 1.471 0 0 0 1.071.418 1.452 1.452 0 0 0 1.073-.379 1.407 1.407 0 0 0 .424-1.04c0-.091.052-.136.152-.134l1.456.089a.156.156 0 0 1 .1.039.112.112 0 0 1 .042.089 2.844 2.844 0 0 1 -.433 1.512 2.7 2.7 0 0 1 -1.152 1 3.755 3.755 0 0 1 -1.695.331 3.667 3.667 0 0 1 -1.693-.407z" transform="translate(-860.82 218.012)"/><path d="m915.316-215.379a.144.144 0 0 1 .014.114l-.33 1.177a.144.144 0 0 1 -.07.09.142.142 0 0 1 -.113.014l-2.15-.6a.054.054 0 0 0 -.076.043l-1.868 6.737a.144.144 0 0 1 -.07.091.143.143 0 0 1 -.113.013l-1.406-.39a.141.141 0 0 1 -.09-.07.144.144 0 0 1 -.014-.114l1.868-6.736a.055.055 0 0 0 -.044-.077l-2.089-.58a.141.141 0 0 1 -.09-.071.14.14 0 0 1 -.014-.113l.326-1.177a.144.144 0 0 1 .07-.09.144.144 0 0 1 .114-.014l6.052 1.678a.144.144 0 0 1 .093.075z" transform="translate(-863.972 217.792)"/><path d="m919.706-203.07.266-1.249a.073.073 0 0 0 -.03-.074l-2.68-1.49a.072.072 0 0 0 -.078.013l-.91.892a.155.155 0 0 1 -.2.03l-1.384-.769a.141.141 0 0 1 -.077-.093.138.138 0 0 1 .052-.121l6.446-6.054a.156.156 0 0 1 .2-.03l1.709.95a.157.157 0 0 1 .082.188l-1.741 8.671a.141.141 0 0 1 -.019.061c-.036.065-.095.076-.174.032l-1.384-.77a.156.156 0 0 1 -.078-.187zm-1.4-3.788 1.917 1.066c.044.024.07.01.08-.041l.818-3.78q.013-.05-.011-.056a.06.06 0 0 0 -.054.02l-2.757 2.7c-.034.041-.032.071.001.091z" transform="translate(-865.461 216.519)"/><path d="m934.533-202.228a.142.142 0 0 1 .106.044l1.031 1.031a.144.144 0 0 1 .043.106.144.144 0 0 1 -.043.106l-5.961 5.953a.145.145 0 0 1 -.106.043.142.142 0 0 1 -.106-.044l-1-1a.178.178 0 0 1 -.052-.193l1.493-6.053c.006-.029 0-.048-.013-.057s-.034 0-.058.022l-3.7 3.734a.142.142 0 0 1 -.106.044.145.145 0 0 1 -.106-.044l-1.031-1.031a.146.146 0 0 1 -.044-.106.142.142 0 0 1 .044-.106l5.961-5.953a.144.144 0 0 1 .106-.044.147.147 0 0 1 .106.044l.994 1a.179.179 0 0 1 .053.194l-1.485 6.026c-.006.029 0 .049.013.057s.034 0 .057-.022l3.695-3.707a.144.144 0 0 1 .109-.044z" transform="translate(-868.029 214.952)"/><path d="m933.684-189.544a2.864 2.864 0 0 1 .4-1.553 3.252 3.252 0 0 1 1.232-1.174l2.317-1.319a3.207 3.207 0 0 1 1.622-.45 2.838 2.838 0 0 1 1.529.457 3.6 3.6 0 0 1 1.188 1.3 3.625 3.625 0 0 1 .512 1.694 2.835 2.835 0 0 1 -.388 1.547 3.205 3.205 0 0 1 -1.216 1.165l-2.318 1.318a3.279 3.279 0 0 1 -1.643.462 2.809 2.809 0 0 1 -1.54-.45 3.64 3.64 0 0 1 -1.195-1.306 3.568 3.568 0 0 1 -.5-1.691zm2.739 1.689a1.591 1.591 0 0 0 1.217-.2l2.383-1.356a1.63 1.63 0 0 0 .806-.939 1.461 1.461 0 0 0 -.167-1.188 1.444 1.444 0 0 0 -.93-.739 1.63 1.63 0 0 0 -1.219.213l-2.383 1.356a1.6 1.6 0 0 0 -.8.936 1.451 1.451 0 0 0 .167 1.174 1.473 1.473 0 0 0 .926.743z" transform="translate(-870.229 212.019)"/><path d="m938.109-179.612a2.572 2.572 0 0 1 .584-1.347 2.383 2.383 0 0 1 1.227-.744l.266-.07a.143.143 0 0 1 .113.015.147.147 0 0 1 .07.091l.363 1.373a.145.145 0 0 1 -.015.114.143.143 0 0 1 -.091.069l-.181.048a1.017 1.017 0 0 0 -.7.661 2.047 2.047 0 0 0 -.013 1.293 1.477 1.477 0 0 0 .523.88.879.879 0 0 0 .752.136.7.7 0 0 0 .436-.322 1.751 1.751 0 0 0 .211-.616q.063-.371.136-1.164a10.657 10.657 0 0 1 .2-1.517 2.84 2.84 0 0 1 .541-1.148 2.051 2.051 0 0 1 1.134-.706 2.251 2.251 0 0 1 1.364.038 2.457 2.457 0 0 1 1.105.816 3.923 3.923 0 0 1 .694 1.453 4.055 4.055 0 0 1 .107 1.718 2.758 2.758 0 0 1 -.614 1.361 2.4 2.4 0 0 1 -1.248.762l-.181.048a.142.142 0 0 1 -.113-.015.143.143 0 0 1 -.07-.091l-.367-1.386a.143.143 0 0 1 .015-.113.146.146 0 0 1 .092-.07l.1-.025a1.134 1.134 0 0 0 .751-.644 1.754 1.754 0 0 0 .054-1.232 1.487 1.487 0 0 0 -.476-.821.812.812 0 0 0 -.747-.144.748.748 0 0 0 -.457.32 1.7 1.7 0 0 0 -.22.652q-.065.411-.138 1.255a14.917 14.917 0 0 1 -.2 1.49 2.772 2.772 0 0 1 -.484 1.069 1.948 1.948 0 0 1 -1.131.719 2.229 2.229 0 0 1 -2.009-.358 3.662 3.662 0 0 1 -1.253-2.078 4.445 4.445 0 0 1 -.13-1.77z" transform="translate(-871.326 209.173)"/><path d="m943.549-166.2a.955.955 0 0 1 .71-.268.959.959 0 0 1 .705.287.96.96 0 0 1 .261.715.965.965 0 0 1 -.286.706.964.964 0 0 1 -.716.261.955.955 0 0 1 -.7-.293.957.957 0 0 1 -.268-.71.956.956 0 0 1 .294-.698z" transform="translate(-872.622 205.126)"/><path d="m938.619-156.352a2.728 2.728 0 0 1 1.354-.767 3.082 3.082 0 0 1 1.629.089l2.75.853a3.087 3.087 0 0 1 1.393.85 2.689 2.689 0 0 1 .676 1.4 3.712 3.712 0 0 1 -.148 1.741 3.805 3.805 0 0 1 -.84 1.507 2.671 2.671 0 0 1 -1.3.784 2.81 2.81 0 0 1 -1.566-.062c-.071-.022-.1-.083-.087-.183l.349-1.419.008-.023c.025-.079.08-.106.168-.079a1.422 1.422 0 0 0 1.132-.073 1.456 1.456 0 0 0 .7-.9 1.475 1.475 0 0 0 -.062-1.148 1.421 1.421 0 0 0 -.892-.7l-2.869-.89a1.4 1.4 0 0 0 -1.12.077 1.47 1.47 0 0 0 -.7.911 1.454 1.454 0 0 0 .065 1.136 1.407 1.407 0 0 0 .88.7c.088.027.116.088.087.183l-.495 1.365a.159.159 0 0 1 -.067.09.108.108 0 0 1 -.1.016 2.845 2.845 0 0 1 -1.332-.837 2.712 2.712 0 0 1 -.641-1.386 3.761 3.761 0 0 1 .155-1.72 3.662 3.662 0 0 1 .873-1.515z" transform="translate(-871.197 202.807)"/><path d="m934.526-146.519a2.866 2.866 0 0 1 1.558-.384 3.255 3.255 0 0 1 1.617.529l2.259 1.418a3.2 3.2 0 0 1 1.165 1.216 2.837 2.837 0 0 1 .321 1.562 3.6 3.6 0 0 1 -.578 1.661 3.635 3.635 0 0 1 -1.249 1.253 2.834 2.834 0 0 1 -1.547.39 3.2 3.2 0 0 1 -1.6-.519l-2.259-1.417a3.294 3.294 0 0 1 -1.185-1.229 2.816 2.816 0 0 1 -.332-1.569 3.642 3.642 0 0 1 .585-1.671 3.567 3.567 0 0 1 1.245-1.24zm-.191 3.212a1.6 1.6 0 0 0 .757.975l2.323 1.457a1.628 1.628 0 0 0 1.209.266 1.46 1.46 0 0 0 .967-.71 1.445 1.445 0 0 0 .211-1.169 1.628 1.628 0 0 0 -.765-.973l-2.322-1.457a1.605 1.605 0 0 0 -1.2-.262 1.455 1.455 0 0 0 -.956.7 1.477 1.477 0 0 0 -.224 1.173z" transform="translate(-869.979 200.235)"/><path d="m930.583-129.586a.144.144 0 0 1 -.049.1l-1.073.987a.148.148 0 0 1 -.108.04.144.144 0 0 1 -.1-.049l-5.7-6.2a.142.142 0 0 1 -.04-.107.141.141 0 0 1 .049-.1l1.036-.953a.177.177 0 0 1 .2-.045l5.986 1.741c.029.007.049 0 .058-.011s0-.034-.02-.058l-3.578-3.854a.145.145 0 0 1 -.04-.108.144.144 0 0 1 .049-.1l1.073-.987a.145.145 0 0 1 .108-.04.142.142 0 0 1 .1.049l5.7 6.2a.145.145 0 0 1 .04.108.144.144 0 0 1 -.049.1l-1.036.953a.178.178 0 0 1 -.2.045l-5.96-1.731c-.029-.007-.048 0-.058.011s0 .034.02.058l3.552 3.844a.144.144 0 0 1 .04.107z" transform="translate(-867.685 198.343)"/><path d="m919.043-121.231a.144.144 0 0 1 -.088-.074l-.566-1.082a.144.144 0 0 1 -.01-.114.148.148 0 0 1 .074-.088l1.976-1.034a.055.055 0 0 0 .027-.084l-3.239-6.2a.145.145 0 0 1 -.01-.114.143.143 0 0 1 .073-.088l1.292-.676a.144.144 0 0 1 .114-.01.143.143 0 0 1 .088.074l3.239 6.2a.055.055 0 0 0 .084.026l1.922-1a.141.141 0 0 1 .114-.011.142.142 0 0 1 .088.074l.566 1.082a.141.141 0 0 1 .01.114.145.145 0 0 1 -.073.088l-5.566 2.91a.147.147 0 0 1 -.115.007z" transform="translate(-866.108 196.208)"/><path d="m906.179-126.645.659 1.094c.025.028.049.04.073.034l2.975-.743c.024-.006.04-.027.048-.064l.055-1.272a.155.155 0 0 1 .127-.16l1.535-.384a.143.143 0 0 1 .12.015.138.138 0 0 1 .044.124l-.57 8.825a.156.156 0 0 1 -.127.16l-1.9.474a.155.155 0 0 1 -.187-.082l-4.654-7.52a.14.14 0 0 1 -.027-.057c-.018-.073.017-.12.106-.143l1.535-.383a.156.156 0 0 1 .188.082zm3.611 1.808-2.128.532c-.048.012-.058.04-.03.085l1.985 3.319c.016.03.031.041.047.033a.055.055 0 0 0 .026-.051l.167-3.856c-.004-.052-.026-.072-.067-.062z" transform="translate(-862.895 195.546)"/><path d="m899.427-125.472a2.73 2.73 0 0 1 1.117 1.084 3.085 3.085 0 0 1 .373 1.588l-.047 2.879a3.082 3.082 0 0 1 -.424 1.576 2.69 2.69 0 0 1 -1.151 1.041 3.728 3.728 0 0 1 -1.714.346 3.8 3.8 0 0 1 -1.682-.383 2.677 2.677 0 0 1 -1.118-1.027 2.815 2.815 0 0 1 -.38-1.52c0-.075.052-.12.152-.135l1.459-.063h.025c.083 0 .124.048.122.139a1.42 1.42 0 0 0 .388 1.065 1.449 1.449 0 0 0 1.059.416 1.471 1.471 0 0 0 1.084-.381 1.421 1.421 0 0 0 .422-1.052l.049-3a1.4 1.4 0 0 0 -.388-1.053 1.464 1.464 0 0 0 -1.071-.416 1.45 1.45 0 0 0 -1.072.381 1.4 1.4 0 0 0 -.422 1.04c0 .092-.052.137-.151.134l-1.457-.087a.156.156 0 0 1 -.1-.039.112.112 0 0 1 -.042-.089 2.843 2.843 0 0 1 .43-1.513 2.7 2.7 0 0 1 1.15-1 3.752 3.752 0 0 1 1.694-.334 3.662 3.662 0 0 1 1.695.403z" transform="translate(-860.408 194.979)"/><path d="m881.644-119.7a.142.142 0 0 1 -.014-.113l.322-1.178a.142.142 0 0 1 .07-.091.146.146 0 0 1 .113-.014l2.153.588a.055.055 0 0 0 .076-.044l1.841-6.744a.145.145 0 0 1 .07-.091.142.142 0 0 1 .114-.014l1.406.384a.145.145 0 0 1 .091.07.141.141 0 0 1 .014.114l-1.841 6.744a.055.055 0 0 0 .044.076l2.092.571a.144.144 0 0 1 .091.071.145.145 0 0 1 .014.113l-.322 1.178a.146.146 0 0 1 -.07.091.143.143 0 0 1 -.113.014l-6.059-1.655a.144.144 0 0 1 -.092-.07z" transform="translate(-857.214 195.362)"/><path d="m876.6-132.161-.262 1.25a.073.073 0 0 0 .031.074l2.685 1.48a.072.072 0 0 0 .078-.014l.906-.9a.157.157 0 0 1 .2-.031l1.386.764a.141.141 0 0 1 .077.093.136.136 0 0 1 -.052.12l-6.423 6.08a.157.157 0 0 1 -.2.031l-1.714-.944a.157.157 0 0 1 -.082-.187l1.708-8.677a.139.139 0 0 1 .019-.061c.036-.065.094-.077.174-.032l1.387.764a.156.156 0 0 1 .082.19zm1.416 3.782-1.921-1.058c-.044-.024-.07-.01-.08.041l-.8 3.783q-.014.05.011.056a.058.058 0 0 0 .054-.02l2.746-2.712c.027-.039.025-.069-.012-.09z" transform="translate(-855.114 196.794)"/><path d="m860.985-133.243a.142.142 0 0 1 -.106-.044l-1.034-1.028a.145.145 0 0 1 -.044-.106.144.144 0 0 1 .044-.106l5.938-5.974a.144.144 0 0 1 .106-.044.144.144 0 0 1 .106.043l1 .993a.179.179 0 0 1 .053.193l-1.471 6.058c-.006.03 0 .049.014.058s.034 0 .057-.022l3.689-3.747a.144.144 0 0 1 .106-.044.141.141 0 0 1 .106.044l1.034 1.028a.14.14 0 0 1 .044.105.144.144 0 0 1 -.043.107l-5.939 5.974a.145.145 0 0 1 -.106.045.144.144 0 0 1 -.106-.044l-1-.992a.18.18 0 0 1 -.053-.194l1.462-6.032c.006-.029 0-.048-.013-.057s-.034 0-.058.022l-3.68 3.721a.149.149 0 0 1 -.106.043z" transform="translate(-851.758 198.645)"/><path d="m862.465-144.967a2.866 2.866 0 0 1 -.394 1.555 3.254 3.254 0 0 1 -1.227 1.178l-2.313 1.327a3.189 3.189 0 0 1 -1.621.456 2.831 2.831 0 0 1 -1.53-.45 3.608 3.608 0 0 1 -1.193-1.291 3.629 3.629 0 0 1 -.519-1.693 2.839 2.839 0 0 1 .383-1.549 3.2 3.2 0 0 1 1.211-1.169l2.313-1.328a3.28 3.28 0 0 1 1.642-.468 2.812 2.812 0 0 1 1.541.444 3.636 3.636 0 0 1 1.2 1.3 3.562 3.562 0 0 1 .507 1.688zm-2.746-1.679a1.594 1.594 0 0 0 -1.216.21l-2.378 1.364a1.633 1.633 0 0 0 -.8.942 1.465 1.465 0 0 0 .172 1.188 1.45 1.45 0 0 0 .933.736 1.627 1.627 0 0 0 1.218-.218l2.378-1.365a1.608 1.608 0 0 0 .8-.939 1.46 1.46 0 0 0 -.171-1.174 1.478 1.478 0 0 0 -.936-.745z" transform="translate(-850.225 200.609)"/><path d="m857.965-154.68a2.574 2.574 0 0 1 -.579 1.349 2.381 2.381 0 0 1 -1.225.749l-.265.071a.148.148 0 0 1 -.114-.015.147.147 0 0 1 -.07-.091l-.369-1.372a.148.148 0 0 1 .015-.114.149.149 0 0 1 .091-.07l.181-.048a1.017 1.017 0 0 0 .692-.664 2.046 2.046 0 0 0 .008-1.293 1.468 1.468 0 0 0 -.527-.878.881.881 0 0 0 -.752-.133.7.7 0 0 0 -.435.324 1.756 1.756 0 0 0 -.208.617q-.061.371-.132 1.165a10.654 10.654 0 0 1 -.2 1.518 2.84 2.84 0 0 1 -.536 1.15 2.049 2.049 0 0 1 -1.131.71 2.249 2.249 0 0 1 -1.364-.033 2.457 2.457 0 0 1 -1.109-.811 3.923 3.923 0 0 1 -.7-1.451 4.049 4.049 0 0 1 -.114-1.718 2.759 2.759 0 0 1 .607-1.363 2.407 2.407 0 0 1 1.246-.767l.181-.048a.142.142 0 0 1 .113.014.144.144 0 0 1 .07.091l.372 1.384a.144.144 0 0 1 -.014.114.146.146 0 0 1 -.091.07l-.1.026a1.132 1.132 0 0 0 -.749.646 1.758 1.758 0 0 0 -.049 1.233 1.49 1.49 0 0 0 .478.82.812.812 0 0 0 .748.141.745.745 0 0 0 .455-.323 1.7 1.7 0 0 0 .218-.652q.064-.411.133-1.255a14.562 14.562 0 0 1 .193-1.491 2.76 2.76 0 0 1 .479-1.071 1.949 1.949 0 0 1 1.129-.723 2.232 2.232 0 0 1 2.01.35 3.664 3.664 0 0 1 1.261 2.075 4.437 4.437 0 0 1 .153 1.767z" transform="translate(-849.078 203.251)"/><path d="m854.792-166.316a.955.955 0 0 1 -.709.268.963.963 0 0 1 -.706-.285.961.961 0 0 1 -.263-.715.958.958 0 0 1 .286-.706.957.957 0 0 1 .715-.263.952.952 0 0 1 .7.292.955.955 0 0 1 .269.708.955.955 0 0 1 -.292.701z" transform="translate(-850.087 205.513)"/></g></svg>